<svg id="Layer_1" data-name="Layer 1" xmlns="http://www.w3.org/2000/svg" viewBox="0 0 389.6 500.7"><defs><style>.cls-1{fill:#26a96c;}.cls-2{fill:#bcbcbc;}.cls-3{fill:none;stroke:#000;stroke-miterlimit:10;stroke-width:5px;}.cls-4{fill:#ff3964;}</style></defs><title>BusinessIcon</title><path class="cls-1" d="M395.7,389.7c-10.7-18.8-18.1-40.5-15.2-62s18-42.2,39.3-46.4c10.2-2.1,20.7-.3,30.7,2.6,28.7,8.2,54.1,25.2,78,43.2,14.6,11,29.1,22.6,39.9,37.4s17.9,33,15.7,51.2-13.7,35.2-23.2,51.7-17.2,36.3-11.2,54.3,23.9,29,38,41.9c35,31.9,50,86,31.2,129.6-12.9,30-39.9,52.5-69.9,65.7s-62.9,18-95.6,20.6-68.4,2.9-100.8-7.1-62.5-31.8-75.7-63c-14.3-33.8-6.8-73.7,11.3-105.7s45.9-57.2,73.7-81.1c12.3-10.6,24.9-21.2,33.9-34.7,10.1-15.3,17.6-36.7,18.6-55.1S404.3,405.1,395.7,389.7Z" transform="translate(-269.4 -280.4)"/><rect class="cls-2" x="58.6" y="93.6" width="15" height="331"/><polygon points="73.6 93.6 58.6 93.6 58.6 424.6 73.6 424.6 73.6 93.6 73.6 93.6"/><rect x="58.6" y="409.6" width="331" height="15"/><polyline class="cls-3" points="70.1 417.1 125.1 360.1 171.1 292.1 235.1 300.1 277.1 227.1 358.1 161.1"/><path class="cls-4" d="M393.6,652a12.1,12.1,0,1,1,12.1-12.1A12.1,12.1,0,0,1,393.6,652Z" transform="translate(-269.4 -280.4)"/><path d="M393.6,628.3A11.6,11.6,0,1,1,382,639.9a11.6,11.6,0,0,1,11.6-11.6m0-1a12.6,12.6,0,1,0,12.6,12.6,12.5,12.5,0,0,0-12.6-12.6Z" transform="translate(-269.4 -280.4)"/><path class="cls-4" d="M440,586.9a12.1,12.1,0,1,1,12.1-12.1A12.1,12.1,0,0,1,440,586.9Z" transform="translate(-269.4 -280.4)"/><path d="M440,563.2a11.6,11.6,0,1,1-11.6,11.6A11.6,11.6,0,0,1,440,563.2m0-1a12.6,12.6,0,0,0,0,25.2,12.6,12.6,0,1,0,0-25.2Z" transform="translate(-269.4 -280.4)"/><path class="cls-4" d="M545.9,518.6A12.1,12.1,0,1,1,558,506.5,12.1,12.1,0,0,1,545.9,518.6Z" transform="translate(-269.4 -280.4)"/><path d="M545.9,494.9a11.6,11.6,0,1,1-11.6,11.6,11.6,11.6,0,0,1,11.6-11.6m0-1a12.6,12.6,0,1,0,12.6,12.6,12.5,12.5,0,0,0-12.6-12.6Z" transform="translate(-269.4 -280.4)"/><path class="cls-4" d="M622.4,458.7a12.1,12.1,0,1,1,12.1-12.1A12.1,12.1,0,0,1,622.4,458.7Z" transform="translate(-269.4 -280.4)"/><path d="M622.4,435a11.6,11.6,0,1,1-11.6,11.6A11.6,11.6,0,0,1,622.4,435m0-1A12.6,12.6,0,1,0,635,446.6,12.5,12.5,0,0,0,622.4,434Z" transform="translate(-269.4 -280.4)"/><path class="cls-4" d="M504.8,590.5a12.1,12.1,0,0,1,0-24.2,12.1,12.1,0,0,1,0,24.2Z" transform="translate(-269.4 -280.4)"/><path d="M504.8,566.8a11.6,11.6,0,1,1-11.6,11.6,11.6,11.6,0,0,1,11.6-11.6m0-1a12.6,12.6,0,1,0,12.6,12.6,12.6,12.6,0,0,0-12.6-12.6Z" transform="translate(-269.4 -280.4)"/></svg>