<svg id="Layer_1" data-name="Layer 1" xmlns="http://www.w3.org/2000/svg" viewBox="0 0 400.6 500.7"><defs><style>.cls-1{fill:#98fb98;}.cls-2{fill:#bcbcbc;}.cls-3{fill:none;stroke:#000;stroke-miterlimit:10;stroke-width:5px;}.cls-4{fill:#ff3964;}</style></defs><title>BusinessIcon</title><path class="cls-1" d="M395.7,389.7c-10.7-18.8-18.1-40.5-15.2-62s18-42.2,39.3-46.4c10.2-2.1,20.7-.3,30.7,2.6,28.7,8.2,54.1,25.2,78,43.2,14.6,11,29.1,22.6,39.9,37.4s17.9,33,15.7,51.2-13.7,35.2-23.2,51.7-17.2,36.3-11.2,54.3,23.9,29,38,41.9c35,31.9,50,86,31.2,129.6-12.9,30-39.9,52.5-69.9,65.7s-62.9,18-95.6,20.6-68.4,2.9-100.8-7.1-62.5-31.8-75.7-63c-14.3-33.8-6.8-73.7,11.3-105.7s45.9-57.2,73.7-81.1c12.3-10.6,24.9-21.2,33.9-34.7,10.1-15.3,17.6-36.7,18.6-55.1S404.3,405.1,395.7,389.7Z" transform="translate(-269.4 -280.4)"/><path class="cls-2" d="M342,695Z" transform="translate(-269.4 -280.4)"/><polygon points="82.6 93.6 62.6 93.6 62.6 424.6 82.6 424.6 82.6 93.6 82.6 93.6"/><rect x="69.6" y="404.6" width="331" height="20"/><polyline class="cls-3" points="70.1 417.1 125.1 360.1 171.1 292.1 235.1 300.1 277.1 227.1 358.1 161.1"/><circle class="cls-4" cx="172.9" cy="293.3" r="9.3"/><path d="M442.3,564.9a8.8,8.8,0,1,1-8.8,8.8,8.7,8.7,0,0,1,8.8-8.8m0-1a9.8,9.8,0,1,0,9.8,9.8,9.8,9.8,0,0,0-9.8-9.8Z" transform="translate(-269.4 -280.4)"/><circle class="cls-4" cx="123.4" cy="361.8" r="9.3"/><path d="M392.8,633.4a8.8,8.8,0,1,1,0,17.6,8.8,8.8,0,0,1,0-17.6m0-1a9.8,9.8,0,1,0,9.8,9.8,9.8,9.8,0,0,0-9.8-9.8Z" transform="translate(-269.4 -280.4)"/><circle class="cls-4" cx="277.1" cy="227.5" r="9.3"/><path d="M546.5,499a8.9,8.9,0,1,1-8.9,8.9,8.9,8.9,0,0,1,8.9-8.9m0-1a9.9,9.9,0,1,0,9.8,9.9,9.9,9.9,0,0,0-9.8-9.9Z" transform="translate(-269.4 -280.4)"/><path class="cls-4" d="M504.9,590.8a9.3,9.3,0,1,1,9.3-9.3A9.3,9.3,0,0,1,504.9,590.8Z" transform="translate(-269.4 -280.4)"/><path d="M504.9,572.7a8.8,8.8,0,1,1-8.8,8.8,8.7,8.7,0,0,1,8.8-8.8m0-1a9.8,9.8,0,1,0,9.8,9.8,9.8,9.8,0,0,0-9.8-9.8Z" transform="translate(-269.4 -280.4)"/><circle class="cls-4" cx="358.5" cy="161.4" r="9.3"/><path d="M627.9,433a8.8,8.8,0,1,1-8.8,8.8,8.8,8.8,0,0,1,8.8-8.8m0-1a9.8,9.8,0,1,0,9.8,9.8,9.8,9.8,0,0,0-9.8-9.8Z" transform="translate(-269.4 -280.4)"/></svg>