<svg id="Layer_1" data-name="Layer 1" xmlns="http://www.w3.org/2000/svg" viewBox="0 0 361.2 287.7"><defs><style>.cls-1{fill:#98fb98;}.cls-2{fill:#f5f5f5;}.cls-3,.cls-5,.cls-7,.cls-8{fill:none;}.cls-3,.cls-5,.cls-6,.cls-7,.cls-8,.cls-9{stroke:#000;stroke-miterlimit:10;}.cls-3,.cls-6{stroke-width:6px;}.cls-4{fill:#edd86e;}.cls-5{stroke-width:4px;}.cls-6{fill:#a55a0f;}.cls-7{stroke-width:2px;}.cls-9{fill:#fff;stroke-width:3px;}</style></defs><title>DesignIcon</title><path class="cls-1" d="M451.8,272.6c65.4-38.8,99-36.8,117.8-26.4,26.9,14.9,19.6,44.7,55.7,91s67,45.8,68.2,67.8c2.9,52.5-166.5,125.9-203.9,87.7-23.7-24.2,20.1-78.1-6.4-106.6-34.2-36.8-139.7,17.8-150.1-.4C327.4,375.6,351.8,346,451.8,272.6Z" transform="translate(-332.4 -239.8)"/><rect class="cls-2" x="43.6" y="60.2" width="269" height="174" rx="12"/><path d="M633,303a9,9,0,0,1,9,9V462a9,9,0,0,1-9,9H388a9,9,0,0,1-9-9V312a9,9,0,0,1,9-9H633m0-6H388a15,15,0,0,0-15,15V462a15,15,0,0,0,15,15H633a15,15,0,0,0,15-15V312a15,15,0,0,0-15-15Z" transform="translate(-332.4 -239.8)"/><line class="cls-3" x1="44.6" y1="81.2" x2="311.6" y2="81.2"/><circle cx="234.6" cy="72.2" r="4"/><circle cx="259.6" cy="72.2" r="4"/><circle cx="284.6" cy="72.2" r="4"/><rect class="cls-4" x="80.6" y="110.2" width="100" height="64"/><path d="M510,353v58H416V353h94m6-6H410v70H516V347Z" transform="translate(-332.4 -239.8)"/><line class="cls-3" x1="201.6" y1="122.2" x2="275.6" y2="122.2"/><line class="cls-5" x1="201.6" y1="141.2" x2="248.6" y2="141.2"/><line class="cls-5" x1="201.6" y1="149.2" x2="264.6" y2="149.2"/><line class="cls-5" x1="201.6" y1="157.2" x2="248.6" y2="157.2"/><line class="cls-5" x1="201.6" y1="165.2" x2="255.6" y2="165.2"/><line class="cls-5" x1="201.6" y1="173.2" x2="242.6" y2="173.2"/><rect class="cls-6" x="348.8" y="426.2" width="125.5" height="32.46" rx="5.5" transform="translate(-32.7 -391.1) rotate(32.3)"/><line class="cls-7" x1="44.6" y1="164.2" x2="41.1" y2="169.7"/><line class="cls-8" x1="50.5" y1="167.9" x2="48.8" y2="170.7"/><line class="cls-7" x1="55.5" y1="171.1" x2="52.1" y2="176.6"/><line class="cls-8" x1="60.9" y1="175.8" x2="59.2" y2="178.5"/><line class="cls-7" x1="66.5" y1="178" x2="63.1" y2="183.5"/><line class="cls-8" x1="71.9" y1="182.7" x2="70.2" y2="185.5"/><line class="cls-7" x1="77.5" y1="185" x2="74" y2="190.5"/><line class="cls-8" x1="82.9" y1="189.6" x2="81.2" y2="192.4"/><line class="cls-7" x1="88.5" y1="191.9" x2="85" y2="197.4"/><line class="cls-8" x1="94.2" y1="196.1" x2="92.4" y2="198.9"/><line class="cls-7" x1="99.5" y1="198.8" x2="96" y2="204.3"/><line class="cls-8" x1="105.1" y1="203" x2="103.4" y2="205.8"/><line class="cls-7" x1="110.5" y1="205.8" x2="107" y2="211.3"/><line class="cls-8" x1="116.1" y1="210" x2="114.4" y2="212.7"/><line class="cls-7" x1="121.4" y1="212.7" x2="118" y2="218.2"/><line class="cls-8" x1="127.1" y1="216.9" x2="125.4" y2="219.6"/><line class="cls-8" x1="138.1" y1="223.8" x2="136.3" y2="226.6"/><path class="cls-9" d="M556.9,523.3l-3,1.8a6.1,6.1,0,0,1-8.4-2.1l-28.9-48.4-13.7-23a6.2,6.2,0,0,1,2.1-8.5l3-1.8a6.3,6.3,0,0,1,8.5,2.1l42.6,71.5A6.1,6.1,0,0,1,556.9,523.3Z" transform="translate(-332.4 -239.8)"/><path class="cls-4" d="M502.5,453.1a21,21,0,0,1-4.1-.4c-20.7-6.8-18.2-28.6-18-29.6,1.1-12.8,6.3-17.8,8.7-19.5,1.8,2.8,6.2,5.4,11.4,8.4,10.6,6.1,23.7,13.8,20,26s-11.9,15.1-18,15.1Z" transform="translate(-332.4 -239.8)"/><path d="M488.9,405.7c2.3,2.6,6.2,4.9,10.9,7.6,12.8,7.5,22.4,14,19.3,24.3s-11,14-16.6,14a29.2,29.2,0,0,1-3.6-.3c-19.5-6.5-17.2-27.1-17.1-28h.1c.9-10.4,4.6-15.3,7-17.5m.9-4.2s-9.3,3.7-10.9,21.4c0,0-3.1,24,19.1,31.2a19.5,19.5,0,0,0,4.5.5c5.7,0,15.2-2.2,19.4-16.2,6.2-20.6-30.1-28.6-32.1-36.9Z" transform="translate(-332.4 -239.8)"/><line class="cls-7" x1="197.3" y1="225.9" x2="183.2" y2="234.1"/><line class="cls-7" x1="224.4" y1="270.6" x2="211.4" y2="280"/><rect class="cls-9" x="499" y="449" width="27" height="5" rx="1.3" transform="translate(-489.4 77) rotate(-30)"/></svg>