<svg id="Layer_1" data-name="Layer 1" xmlns="http://www.w3.org/2000/svg" viewBox="0 0 289.3 238.9"><defs><style>.cls-1{fill:#26a96c;}.cls-2{fill:#b27f47;stroke-width:6px;}.cls-2,.cls-3,.cls-4,.cls-5{stroke:#000;stroke-miterlimit:10;}.cls-3,.cls-4{fill:none;}.cls-3{stroke-width:2px;}.cls-5{fill:#efefef;stroke-width:3px;}.cls-6{fill:#ff3964;}</style></defs><title>DesignIcon</title><path class="cls-1" d="M356,464.6c-8.1,11.4-11.9,24.9-12.8,38s1.3,25.6,11.1,32.5,23.8,5.1,36.3,1.9,24.6-7.7,37.1-10.4,25.7-3.7,37.1.3c9.5,3.3,17.2,9.7,23.9,16.8a124.2,124.2,0,0,1,20.8,29.9c4.7,9.3,8.7,19.8,18.1,24.6s19.6,3,29.5-.1c35.1-11,85.7-42.9,73.3-76.1-15.4-41,1.3-70.2-19.1-96.5-7.3-9.5-16.3-17.9-27.6-22.8-13.2-5.7-28.6-6.1-43.6-5.9s-13.9-17-29.1-14.8-32.9,26.4-47,32c-18.9,7.6-50.8,14.5-69.2,23.4C380.6,444.3,365.3,451.6,356,464.6Z" transform="translate(-343 -362.1)"/><rect class="cls-2" x="373.2" y="462.2" width="244.2" height="63.17" rx="5.5" transform="translate(-3 -550.2) rotate(32.3)"/><line class="cls-3" x1="85" y1="56.9" x2="78.3" y2="67.6"/><line class="cls-4" x1="96.6" y1="64.2" x2="93.2" y2="69.6"/><line class="cls-3" x1="106.4" y1="70.4" x2="99.6" y2="81.1"/><line class="cls-4" x1="116.8" y1="79.5" x2="113.5" y2="84.8"/><line class="cls-3" x1="127.7" y1="83.9" x2="121" y2="94.6"/><line class="cls-4" x1="138.2" y1="93" x2="134.8" y2="98.3"/><line class="cls-3" x1="149.1" y1="97.4" x2="142.4" y2="108.1"/><line class="cls-4" x1="159.6" y1="106.5" x2="156.2" y2="111.8"/><line class="cls-3" x1="170.5" y1="110.9" x2="163.7" y2="121.6"/><line class="cls-4" x1="181.5" y1="119.1" x2="178.1" y2="124.4"/><line class="cls-3" x1="191.8" y1="124.4" x2="185.1" y2="135"/><line class="cls-4" x1="202.9" y1="132.6" x2="199.5" y2="137.9"/><line class="cls-3" x1="213.2" y1="137.8" x2="206.5" y2="148.5"/><line class="cls-4" x1="224.2" y1="146" x2="220.9" y2="151.4"/><line class="cls-3" x1="239" y1="152.3" x2="232.1" y2="164.5"/><line class="cls-4" x1="251.6" y1="160.9" x2="248.2" y2="167"/><path class="cls-5" d="M412.1,590.9l-5.8-4.7a13.2,13.2,0,0,1-1.9-18.5L480,474.9l35.9-44.1a13,13,0,0,1,18.4-1.9l5.8,4.7A13.1,13.1,0,0,1,542,452L430.5,589A13.1,13.1,0,0,1,412.1,590.9Z" transform="translate(-343 -362.1)"/><path class="cls-6" d="M548.7,456.2c-15.9,0-27.6-5.6-34.8-16.6a41.7,41.7,0,0,1-6.1-16.6c-.6-19.1,6.7-34.4,21.7-45.5a69.1,69.1,0,0,1,23.1-11,79.8,79.8,0,0,1,20.7-2.9c14.5,0,22.3,5.1,25,7.3-4.5,4.6-6.4,15.1-8.7,28-4.4,24.8-10,55.6-36.9,57.2Z" transform="translate(-343 -362.1)"/><path d="M573.3,365.1c12.4,0,19.6,3.7,22.9,6-4.1,5.4-5.9,15.4-8.1,27.5-4.3,24.3-9.7,54.5-35.5,56h-3.9c-15.2,0-26.5-5.3-33.4-15.8a39.2,39.2,0,0,1-6-16c-.6-18.5,6.5-33.3,21-44.1A70.6,70.6,0,0,1,553,367.9h.1a79.6,79.6,0,0,1,20.2-2.8m0-3a83.9,83.9,0,0,0-21,2.9s-47.6,10.7-46,58.1c0,0,2.8,34.6,42.4,34.6h4.1c43.4-2.5,33.4-77.2,47.8-86.6,0,0-7.9-8.9-27.3-8.9Z" transform="translate(-343 -362.1)"/><line class="cls-3" x1="171" y1="123.9" x2="145.2" y2="104"/><line class="cls-3" x1="102" y1="207.9" x2="76.6" y2="187.5"/><rect class="cls-5" x="498.6" y="443.7" width="54.3" height="10.06" rx="1.3" transform="translate(47.6 -591.2) rotate(38.2)"/><path class="cls-4" d="M596.4,371.2a6.6,6.6,0,0,0-3.4.6,5.6,5.6,0,0,0-2.8,1.9c-.6,1-.5,2.3-.8,3.5a7,7,0,0,1-3.6,4.3,11.6,11.6,0,0,1-5.7,1.3" transform="translate(-343 -362.1)"/></svg>