<svg id="Layer_1" data-name="Layer 1" xmlns="http://www.w3.org/2000/svg" viewBox="0 0 83 77.28"><defs><style>.cls-1{fill:#eab39b;}.cls-2{fill:#e2ab98;}.cls-3,.cls-39{fill:#ce9e89;}.cls-4{fill:#af8475;}.cls-5{fill:#fff;}.cls-6,.cls-7{fill:#d8d8d8;}.cls-6{opacity:0.1;}.cls-39,.cls-7{opacity:0.2;}.cls-8{fill:#161619;}.cls-9{fill:#9793cc;}.cls-10{fill:#8e8ebc;}.cls-11{fill:#8b8bb7;}.cls-12{fill:#8484b2;}.cls-13{fill:#aaaae0;}.cls-14{fill:#7676a5;}.cls-15,.cls-34{fill:none;}.cls-15{stroke:#9793cc;stroke-miterlimit:10;}.cls-16{fill:#7777a5;}.cls-17{fill:#ddaa9e;}.cls-18{fill:#dba697;}.cls-19{fill:#d3a49b;}.cls-20{fill:#c69b95;}.cls-21{fill:#7c6259;opacity:0.5;}.cls-22{fill:#211317;}.cls-23{fill:#2a171c;}.cls-24{fill:#7a5e57;}.cls-25{fill:#9e786a;}.cls-26{fill:#351d13;}.cls-27{fill:#b78c80;}.cls-28{fill:#c19281;}.cls-29{fill:#d8d5d4;}.cls-30{fill:#2b221e;}.cls-31{fill:#493930;}.cls-32{fill:#c49686;}.cls-33{fill:#775d52;}.cls-35{fill:#d19e8c;}.cls-36{fill:#352925;}.cls-37{fill:#bc9084;}.cls-38{fill:#a0796e;}.cls-40{fill:#eab9a9;}.cls-41{fill:#1e1014;}.cls-42{fill:#b78080;}.cls-43{fill:#e0dada;}.cls-44{fill:#eadfdf;}.cls-45{fill:#755656;}.cls-46{fill:#705454;}.cls-47{fill:#c6c2c2;}.cls-48{fill:#ddd4d4;}.cls-49{fill:#d39090;}.cls-50{fill:#7c5c5c;}</style></defs><title>HeadshotResize</title><path class="cls-1" d="M60.9,58.8c-.27-.27-8.63,4.45-8.63,4.45a3.55,3.55,0,0,0-2.05.84.61.61,0,0,1,.12.41,7.58,7.58,0,0,1-.2,1.35.73.73,0,0,1,.21.22.7.7,0,0,1,.09.43l.69,0a.68.68,0,0,1,.64.75.64.64,0,0,1-.38.79.57.57,0,0,1,.18.36.73.73,0,0,1,.11.9.64.64,0,0,1-.21.94c-.26.13-.52.24-.78.35.69-.11,1.18.83.52,1.21a.64.64,0,0,1-.3.72l-.09,0a.67.67,0,0,1-.09.46.79.79,0,0,1,0,.86A.64.64,0,0,1,51,75a2.52,2.52,0,0,1-.69.43.5.5,0,0,1,0,.12.62.62,0,0,1,.2.47v.3h.08c10.78,3.77,13.34-5.8,13.34-5.8C60.36,66.61,60.9,58.8,60.9,58.8Z" transform="translate(-7 -11.85)"/><path class="cls-1" d="M39.72,59.34c.27-.27,8.55,4.44,8.55,4.44a3.6,3.6,0,0,1,2,.85.61.61,0,0,0-.12.41,7.58,7.58,0,0,0,.2,1.35.73.73,0,0,0-.21.22.7.7,0,0,0-.09.43c-.23,0-.46,0-.68,0a.68.68,0,0,0-.64.75.65.65,0,0,0,.37.79A.61.61,0,0,0,49,69a.73.73,0,0,0-.11.9.64.64,0,0,0,.21.94l.77.35c-.69-.11-1.17.82-.52,1.21a.65.65,0,0,0,.31.72l.08,0a.74.74,0,0,0,.09.46.79.79,0,0,0,0,.86.64.64,0,0,0-.24,1.07,2.33,2.33,0,0,0,.69.44.5.5,0,0,0,0,.12.61.61,0,0,0-.2.47v.3H50c-10.69,3.78-13.23-5.79-13.23-5.79C40.25,67.15,39.72,59.34,39.72,59.34Z" transform="translate(-7 -11.85)"/><path class="cls-1" d="M35.56,66.08s1.35,5.38,3.78,5.79,2-3.64,2-3.64l-.14-2.15L39.66,64l0-1.42-4,1.35-.13,2.29Z" transform="translate(-7 -11.85)"/><polygon class="cls-2" points="42.98 60.15 43.66 60.15 43.52 61.77 43.25 62.85 43.12 62.88 42.98 62.85 42.98 60.15"/><path class="cls-2" d="M61.31,64.71a36.6,36.6,0,0,1-.62-3.82c0-1.66-9.49,4.14-10.54,4.79a1.08,1.08,0,0,1,0,.18c0,.23,0,.45-.07.67a.62.62,0,0,1,.7.64,14.14,14.14,0,0,1-.25,2.6c-.13.9-.2,1.81-.33,2.71h0c0,.06,0,.12,0,.18a.67.67,0,0,1-.11.27,1.23,1.23,0,0,1,.06.71v0a1.08,1.08,0,0,1-.08.5v0a.62.62,0,0,1,0,.48L53,76c1,.4,3.37-2.43,3.37-2.43-1.21-.54-.81-3.37-.81-3.37C56.92,68.57,61.31,64.71,61.31,64.71Z" transform="translate(-7 -11.85)"/><path class="cls-3" d="M60.49,60.82c-1-.25-9.26,4.76-10.38,5.45l0,.26a.62.62,0,0,1,.7.64,14.14,14.14,0,0,1-.25,2.6c-.12.79-.19,1.58-.29,2.37,2.27-.5,2-1.08,2-1.08,1.35-3,8.09-6.33,8.09-6.33C61.17,64.05,60.49,60.82,60.49,60.82Z" transform="translate(-7 -11.85)"/><path class="cls-4" d="M56,65.06c-.63.51-5.29,1.13-5.87,1.21l0,.26a.64.64,0,0,1,.62.31A10.88,10.88,0,0,0,56,65.33C57,64.75,59.7,61.74,60.39,61,59.56,61.81,56,65.06,56,65.06Z" transform="translate(-7 -11.85)"/><path class="cls-4" d="M50.66,66.88H50v-.54l1.21-.13.41.27A2.09,2.09,0,0,1,50.66,66.88Z" transform="translate(-7 -11.85)"/><polygon class="cls-3" points="42.98 54.9 45.27 54.9 45.14 56.11 43.66 60.02 43.25 60.29 42.98 60.29 42.98 54.9"/><polygon class="cls-2" points="43.26 59.93 42.58 59.93 42.72 61.64 42.99 62.78 43.12 62.81 43.26 62.78 43.26 59.93"/><path class="cls-2" d="M38.93,64.08c.33-1.37.62-4,.62-4,0-1.74,9.49,4.38,10.54,5.06a.6.6,0,0,0,0,.19c0,.24,0,.47.07.71a.63.63,0,0,0-.7.68,15.78,15.78,0,0,0,.25,2.74c.13.95.2,1.9.33,2.85h0c0,.06,0,.13,0,.19a.71.71,0,0,0,.11.28,1.36,1.36,0,0,0-.06.75v0a1.2,1.2,0,0,0,.08.53v0a.69.69,0,0,0,0,.51L47.23,76c-.95.42-3.37-2.56-3.37-2.56,1.21-.57.81-3.56.81-3.56C43.32,68.16,38.93,64.08,38.93,64.08Z" transform="translate(-7 -11.85)"/><path class="cls-3" d="M39.75,60.12c1-.27,9.26,5,10.38,5.75l0,.27a.64.64,0,0,0-.7.68,15.69,15.69,0,0,0,.25,2.74c.12.83.19,1.67.28,2.5-2.26-.52-2-1.14-2-1.14-1.35-3.13-8.09-6.68-8.09-6.68C39.07,63.53,39.75,60.12,39.75,60.12Z" transform="translate(-7 -11.85)"/><path class="cls-4" d="M49.58,66.38h.68v-.57L49,65.67l-.4.28A2,2,0,0,0,49.58,66.38Z" transform="translate(-7 -11.85)"/><polygon class="cls-3" points="43.26 54.52 40.97 54.52 41.1 55.8 42.58 59.93 42.99 60.21 43.26 60.21 43.26 54.52"/><path class="cls-4" d="M50.3,66.75l-2.2-.27s-4.59-1.89-5.39-2.83c0,0-2.16-2.16-2.29-3.1s8,4.23,8,4.23S52.37,65.81,50.3,66.75Z" transform="translate(-7 -11.85)"/><path class="cls-3" d="M48,70.93a2.66,2.66,0,0,0,4.18.4c2.42-2.16-2.83-2-2.83-2Z" transform="translate(-7 -11.85)"/><path class="cls-5" d="M50.81,75A4,4,0,0,1,50,75L50,78.74l2.29-.54,1.22-2Z" transform="translate(-7 -11.85)"/><path class="cls-5" d="M50.06,75H50V87.09h4.37Z" transform="translate(-7 -11.85)"/><path class="cls-5" d="M71.47,75.57C71.61,74,63.39,68,63.39,68A6.38,6.38,0,0,1,62,70.34,26.58,26.58,0,0,1,59.35,73c-2,1.41-5,1.7-7.09,1.71a.6.6,0,0,1-.27.06h-.08a5.47,5.47,0,0,1-2,.2l0,.21a.56.56,0,0,1,.21.29.62.62,0,0,1,.3.55,6.41,6.41,0,0,1-.09,1.24s0,0,0,0a5.92,5.92,0,0,1-.1,1.19,5.6,5.6,0,0,1-.13.82.87.87,0,0,1-.07.17c0,.2-.09.41-.13.62a.64.64,0,0,1,.12.36c0,.41,0,.83,0,1.24a.71.71,0,0,1,.18.43c0,.32,0,.64,0,.95a.73.73,0,0,1,.29.51c.11.83.09,1.67.17,2.5a1.49,1.49,0,0,1-.16,1.08c0,.34,0,.68,0,1,1.48,0,3,.07,4.45.11,3.09.08,6.17.16,9.26.31a.63.63,0,0,1,.4.15c.79,0,1.59.07,2.38.12h.07c.92-.11,1.83-.19,2.75-.26h.07l.39,0,2.86-.2C73.44,83.37,71.35,77,71.47,75.57Z" transform="translate(-7 -11.85)"/><path class="cls-6" d="M68.51,77.73c-1.35-2.29-.54-2.83-1.89-4.45s-2.42-3.77-2.56-3.23-3.23,4.58-6.87,5.12-4.72,0-5.79.67a1.2,1.2,0,0,1-1,.25,6.59,6.59,0,0,1-.09,1.17s0,0,0,0a5.92,5.92,0,0,1-.1,1.19,5.6,5.6,0,0,1-.13.82.76.76,0,0,1-.06.16v1.37s4.85,1.48,4.58,3.23a2.91,2.91,0,0,0,1.62,3c.4.13,9.29,0,9.29,0H68S69.86,80,68.51,77.73Z" transform="translate(-7 -11.85)"/><path class="cls-7" d="M63.32,68.7l-1.15,1.23s-2.62,2.95-3.7,3.35a11.72,11.72,0,0,1-5.35,1.28h-.57l-.12,0a.61.61,0,0,1-.44.17h-.08A5.82,5.82,0,0,1,50,75v.23a.53.53,0,0,1,.16.26.61.61,0,0,1,.31.55,6.41,6.41,0,0,1-.09,1.24s0,0,0,0a5.32,5.32,0,0,1-.07,1c1.9-.37,10.75-2.22,11.23-4.38,0,0,2.43-3.64,3.1-3.77Z" transform="translate(-7 -11.85)"/><path class="cls-8" d="M60.42,87.16s2.7-8.76,1.35-16.71l.32-.13S63.93,75.44,60.83,87Z" transform="translate(-7 -11.85)"/><path class="cls-7" d="M50,75v3.36a4.1,4.1,0,0,0,2.56-.81L50.8,75A5.61,5.61,0,0,1,50,75Z" transform="translate(-7 -11.85)"/><path class="cls-5" d="M49.79,75l-3.31,1.49,1.21,2L50,79l-.06-4Z" transform="translate(-7 -11.85)"/><polygon class="cls-5" points="42.98 63.19 42.97 75.51 38.6 75.51 42.98 63.19"/><path class="cls-5" d="M49.83,75.74a.61.61,0,0,1,.2-.29l.06-.39L50,75l-.4,0c-1.27.1-6.18.34-9-1.65A26.58,26.58,0,0,1,38,70.61a6.24,6.24,0,0,1-1.37-2.31s-8.22,5.93-8.09,7.54c.12,1.43-2,7.8-1.71,12.8l2.85.2.4,0h.06c.92.07,1.84.15,2.75.26h.08c.79,0,1.58-.1,2.37-.12a.66.66,0,0,1,.41-.15c3.08-.15,6.17-.23,9.25-.31,1.48,0,3-.13,4.45-.11,0-.33,0-.67,0-1a1.44,1.44,0,0,1-.15-1.08c.07-.84.06-1.67.17-2.5a.76.76,0,0,1,.28-.51c0-.31,0-.63.06-1A.7.7,0,0,1,49.9,82c0-.41,0-.83,0-1.24a.64.64,0,0,1,.12-.36c0-.21-.08-.42-.13-.63a.59.59,0,0,1-.07-.16,7.37,7.37,0,0,1-.13-.82,6.74,6.74,0,0,1-.09-1.19,0,0,0,0,1,0,0,6.42,6.42,0,0,1-.1-1.24A.61.61,0,0,1,49.83,75.74Z" transform="translate(-7 -11.85)"/><path class="cls-6" d="M31.46,78c1.34-2.29.53-2.83,1.88-4.45s2.43-3.77,2.56-3.23,3.24,4.58,6.87,5.12,4.72,0,5.8.67a1.19,1.19,0,0,0,1,.25,6.6,6.6,0,0,0,.1,1.17,0,0,0,0,0,0,0,6.74,6.74,0,0,0,.09,1.19,7.37,7.37,0,0,0,.13.82.77.77,0,0,0,.07.16V81.1s-4.85,1.48-4.58,3.23a2.92,2.92,0,0,1-1.61,3c-.41.13-9.3,0-9.3,0H32S30.11,80.29,31.46,78Z" transform="translate(-7 -11.85)"/><path class="cls-7" d="M49.12,74.8c-.93.06-2.28,0-2.28,0a11.78,11.78,0,0,1-5.35-1.28c-1.07-.4-3.7-3.35-3.7-3.35L36.64,69l-1.28,1.42c.68.13,3.1,3.77,3.1,3.77.48,2.16,9.33,4,11.23,4.38a8.07,8.07,0,0,1-.07-1v0a6.42,6.42,0,0,1-.1-1.24.61.61,0,0,1,.31-.55.54.54,0,0,1,.17-.26V75A3.64,3.64,0,0,1,49.12,74.8Z" transform="translate(-7 -11.85)"/><path class="cls-8" d="M39.54,87.43s-2.7-8.76-1.35-16.71l-.31-.13S36,75.71,39.14,87.3Z" transform="translate(-7 -11.85)"/><path class="cls-7" d="M50.24,75l-.7.27-2.12,2.36a6,6,0,0,0,3.1.75V75Z" transform="translate(-7 -11.85)"/><path class="cls-9" d="M9.91,81.56A46,46,0,0,0,7,87.09H34.08s-.33-1.81-.87-5.32l-19.94.54Z" transform="translate(-7 -11.85)"/><path class="cls-10" d="M15,81.88S9.32,86.34,8.9,87.12l25.18,0-.47-2.71S14.67,82.66,15,81.88Z" transform="translate(-7 -11.85)"/><path class="cls-9" d="M90,87.09A22.18,22.18,0,0,0,84.21,79c-1.57-1.56-11.06-6.78-11.69-7.12l0,0c-1.75-2.29-11.58-9.7-11.58-9.7l.5,3.36a.62.62,0,0,1,.09.32s0,0,0,.07a.88.88,0,0,1,0,.17v.08l.07.44c0,.68,4.58,7.15,4.58,7.15a11.72,11.72,0,0,1,.94,5.79,15.35,15.35,0,0,1,0,7.54Z" transform="translate(-7 -11.85)"/><path class="cls-11" d="M67.5,76.59l2.83,10.5h8.35a10.24,10.24,0,0,0-.54-3.77h0S68.31,76.18,67.5,76.59Z" transform="translate(-7 -11.85)"/><path class="cls-10" d="M76.71,81.9,79,87.08l10.37.1s-8.62-7.27-12.12-8.37C77.21,78.81,72.08,77.42,76.71,81.9Z" transform="translate(-7 -11.85)"/><path class="cls-12" d="M33.56,84l.52,3.07-4.31-.26a24.92,24.92,0,0,1,.67-3.55C30.71,82.78,33.3,83,33.56,84Z" transform="translate(-7 -11.85)"/><path class="cls-13" d="M78.09,82.63s1.6,0,1.33-2.47c0,0-.27-1.62-1.48-2,0,0-2.42-.53-3.1.81l-.12.08-.15-.21s.14-.68,1.75-1.08c0,0,2.29-.27,3,1.35,0,0,1.43,3-1.17,3.6" transform="translate(-7 -11.85)"/><path class="cls-13" d="M72.48,71.87s5.72,5.61,6.16,6.44A43.88,43.88,0,0,0,72.48,71.87Z" transform="translate(-7 -11.85)"/><path class="cls-14" d="M75.82,78.2s2,2.59,2.25,4.36c0,0,1.26.31,1.37-2.13C79.44,80.43,79.5,77.06,75.82,78.2Z" transform="translate(-7 -11.85)"/><path class="cls-12" d="M61.51,66.27a5.48,5.48,0,0,0,.56,1.38s3.59,5.65,4.14,6.11c0,0,2.84,4.51,2.7,6.53L78.48,85l-.81-3.1-1.21-1L67,71.53l-5.39-5.39Z" transform="translate(-7 -11.85)"/><path class="cls-15" d="M74.57,78.81,61.5,65.74l.14-.54S72.55,75.57,74.57,78.81Z" transform="translate(-7 -11.85)"/><path class="cls-12" d="M69.45,80.56s8.86,4.68,9.15,5.3l-.12-.72S70.53,80.83,69.45,80.56Z" transform="translate(-7 -11.85)"/><path class="cls-12" d="M66.35,74s1.75,2.56,1.62,3.5a3.32,3.32,0,0,1,.54,1.35,30.28,30.28,0,0,1,.81,4.44s1.4,3,1.3,3.85L67.16,87s.94-4.58,0-7.55C67.16,79.48,67.16,75.57,66.35,74Z" transform="translate(-7 -11.85)"/><path class="cls-16" d="M67.7,76.52s1.08,5.12.81,6.87A34.07,34.07,0,0,0,68.37,87h2.16s-1.48-2.16-1.48-3.24A40.8,40.8,0,0,0,67.7,76.52Z" transform="translate(-7 -11.85)"/><path class="cls-13" d="M78.88,87a13,13,0,0,0-1.21-5.26s-2.15-2-2.69-2.56c0,0-12.52-12.65-13.47-13.53h0a.45.45,0,0,1,0,.16s0,0,0,.07a.88.88,0,0,1,0,.17v0L74.57,79.21a18.87,18.87,0,0,0,2.83,2.7s1.54,3.91,1.24,5.19Z" transform="translate(-7 -11.85)"/><path class="cls-12" d="M66,73.53a13,13,0,0,1,1,3.35l.74-2.59Z" transform="translate(-7 -11.85)"/><path class="cls-16" d="M75.92,75s8.35,3.23,10.78,8.21C86.7,83.25,84.41,77.73,75.92,75Z" transform="translate(-7 -11.85)"/><path class="cls-9" d="M8.21,84.67a22.38,22.38,0,0,1,6.31-8.08c1.7-1.57,12-6.78,12.71-7.13l0,0c1.91-2.29,12.61-9.7,12.61-9.7l-.56,3.36a.77.77,0,0,0-.09.32s0,0,0,.07a1,1,0,0,0,0,.17v.09l-.08.44c0,.67-5,7.14-5,7.14a10.9,10.9,0,0,0-1,5.79,14.24,14.24,0,0,0,0,7.55Z" transform="translate(-7 -11.85)"/><path class="cls-11" d="M33.27,74.16,30.44,87.09H22.09a15.73,15.73,0,0,1,.54-4.64h0S32.47,73.67,33.27,74.16Z" transform="translate(-7 -11.85)"/><path class="cls-10" d="M24.07,79.48l-2.25,5.18-10.37.1s8.62-7.28,12.12-8.37C23.57,76.39,28.69,75,24.07,79.48Z" transform="translate(-7 -11.85)"/><path class="cls-13" d="M22.54,80.2s-1.67,0-1.39-2.56c0,0,.28-1.68,1.54-2.1,0,0,2.53-.56,3.23.84l.13.08.15-.22s-.14-.7-1.82-1.12c0,0-2.39-.28-3.09,1.4,0,0-1.49,3.14,1.22,3.73" transform="translate(-7 -11.85)"/><path class="cls-13" d="M27.27,69.51s-5.58,5.74-6,6.58A43.61,43.61,0,0,1,27.27,69.51Z" transform="translate(-7 -11.85)"/><path class="cls-14" d="M25.06,75.61s-2.21,2.65-2.51,4.47c0,0-1.41.31-1.54-2.18C21,77.9,21,74.44,25.06,75.61Z" transform="translate(-7 -11.85)"/><path class="cls-12" d="M39.26,63.85a5.63,5.63,0,0,1-.56,1.38s-3.59,5.64-4.13,6.11c0,0-2.85,4.5-2.71,6.53l-9.57,4.71.81-3.1,1.21-.94,9.44-9.43,5.39-5.39Z" transform="translate(-7 -11.85)"/><path class="cls-15" d="M26.2,76.38,39.27,63.31l-.13-.54S28.22,73.15,26.2,76.38Z" transform="translate(-7 -11.85)"/><path class="cls-12" d="M31.32,78.13s-8.86,4.68-9.15,5.31l.12-.72S30.24,78.4,31.32,78.13Z" transform="translate(-7 -11.85)"/><path class="cls-12" d="M34.42,71.53S32.67,74.09,32.8,75a3.26,3.26,0,0,0-.54,1.34,29,29,0,0,0-.8,4.45s-1.41,3-1.31,3.84l3.46-.07s-.94-4.58,0-7.54C33.61,77.06,33.61,73.15,34.42,71.53Z" transform="translate(-7 -11.85)"/><path class="cls-16" d="M33.07,74.09S32,79.21,32.26,81a34.07,34.07,0,0,1,.14,3.64H30.24s1.48-2.15,1.48-3.23A40.85,40.85,0,0,1,33.07,74.09Z" transform="translate(-7 -11.85)"/><path class="cls-13" d="M21.89,84.6a13,13,0,0,1,1.21-5.25s2.16-2,2.7-2.56c0,0,12.51-12.66,13.46-13.54h.05a.47.47,0,0,0,0,.16v.07a1,1,0,0,0,0,.17v.06L26.2,76.79a18.49,18.49,0,0,1-2.83,2.69s-1.53,3.91-1.24,5.19Z" transform="translate(-7 -11.85)"/><path class="cls-12" d="M34.78,71.11a13,13,0,0,0-1,3.34L33,71.87Z" transform="translate(-7 -11.85)"/><path class="cls-16" d="M20.25,73.86s-7.63,4.69-9.12,10C11.13,83.89,12.39,78,20.25,73.86Z" transform="translate(-7 -11.85)"/><path class="cls-13" d="M22.09,84.67a14.94,14.94,0,0,0,0,2.42h-.33s.06-2.12.13-2.54Z" transform="translate(-7 -11.85)"/><path class="cls-16" d="M31,83.43s-2.29,3.66-2.42,3.66h4.18s-.14-2.29-.41-3.77S31,83.43,31,83.43Z" transform="translate(-7 -11.85)"/><path class="cls-1" d="M69.45,38.93a4.59,4.59,0,0,0-2.15.94A8.59,8.59,0,0,1,67.43,38l-1.08-2.15a56.94,56.94,0,0,0-3-13.21c-3.14-3.64-12.14-.84-13.34-.45a2.91,2.91,0,0,1,0,.59c0,.17,0,.19,0,.37a1.29,1.29,0,0,1,0,.21c0,.37.06.73.08,1.09h.66a.68.68,0,0,1,0,1.35h0c0,.71-.09,1.43-.14,2.12-.06.94-.06,1.88-.11,2.83a.68.68,0,0,1-.37.59,7.55,7.55,0,0,0-.13.83c0,.1,0,.2,0,.31a7.31,7.31,0,0,1,.25,1.46.74.74,0,0,1,.18.43,6.38,6.38,0,0,1,0,1v.1a7,7,0,0,1-.08,1c-.05.48-.11,1-.16,1.42a.68.68,0,0,1,.42.79c0,.19-.09.39-.14.59a8,8,0,0,1,0,1.76c0,.3-.05.6-.07.9a25.53,25.53,0,0,1-.06,2.62c0,.22,0,.45-.06.68a.66.66,0,0,1,.65.65A18.45,18.45,0,0,1,50.42,49c0,.32-.05.64-.09,1v.61a14.08,14.08,0,0,1-.07,2.6.6.6,0,0,1-.15.31c0,.35-.07.7-.11,1,0,.12,0,.23,0,.35a1.05,1.05,0,0,1,0,.19c0,.42.08.84.11,1.27a.56.56,0,0,1,.25.37,2.9,2.9,0,0,1,0,1.52.72.72,0,0,1-.21.32,2.6,2.6,0,0,1-.09.78.48.48,0,0,1,0,.18,11.64,11.64,0,0,1,0,1.18,8.09,8.09,0,0,1,0,1.84h0c0,.06,0,.12,0,.18A.59.59,0,0,1,50,63c0,.11,0,.22,0,.33a.56.56,0,0,1,.18.35,3,3,0,0,1,.06.42.7.7,0,0,1,.09.37.56.56,0,0,1,.13.44c0,.39-.08.77-.11,1.15a.93.93,0,0,1,.07.2,9.22,9.22,0,0,0,3.93-.55c2.56-.27,8.62-7.82,8.62-7.82a15.47,15.47,0,0,0,2.16-6.87,3.64,3.64,0,0,0,2-.4c.68-.41.54-1.89.54-1.89a7.93,7.93,0,0,0,.94-1.62,13.1,13.1,0,0,0,.27-1.75c.68-.67,1.49-3.77,1.49-3.77C70.8,38.66,69.45,38.93,69.45,38.93Z" transform="translate(-7 -11.85)"/><polyline class="cls-1" points="42.98 42.23 43.39 42.23 43.66 41.56 44.06 25.8 42.98 24.58 42.98 42.37"/><path class="cls-1" d="M50,62.21v4.13a6.83,6.83,0,0,0,1.48-.13l-1.48-4" transform="translate(-7 -11.85)"/><path class="cls-1" d="M50,66.34a13.52,13.52,0,0,1-2.15-.13S43,64.32,41.9,62.44c0,0-3.91-4.58-4.18-5.66a26,26,0,0,1-1.21-5.12,1.59,1.59,0,0,1-1.62-.95,11.26,11.26,0,0,1-.13-2.29,5.19,5.19,0,0,1-.54-3.36,3.74,3.74,0,0,1-.95-2s-.53-2.42.41-3.23a1.6,1.6,0,0,1,.81,0s.54.41.54.67l1.21-12.8,2.42-2.29,3-1.75L48,20.8l2-1.75Z" transform="translate(-7 -11.85)"/><path class="cls-17" d="M34.32,41.91s0,2.21-.15,2.63c0,0,.67-2.18,1-2.75a.72.72,0,0,1,.07-.11C35.42,41.43,34.58,41.53,34.32,41.91Z" transform="translate(-7 -11.85)"/><path class="cls-2" d="M46.42,56.5a20.46,20.46,0,0,0-3.93-1.88v0l-.08,0h0l.06.06c1.5,1.76,4.06,5.17,4.06,5.17,0,1.49,3.47,2.83,3.47,2.83l1.35-3.07Z" transform="translate(-7 -11.85)"/><path class="cls-2" d="M57.92,57.46a4.41,4.41,0,0,0,1.63-2.16s-.41-1.62-1.62-1.08c0,0-4.71,1.75-2.29,2.56Z" transform="translate(-7 -11.85)"/><path class="cls-2" d="M66.15,42.22c0-.85-3.8,2.69-6.9,4,0,0-5.07-.85-5.5.42,0,0,5.78,3.68,6.2,6.8,0,0,4.37-.28,5.21-4.25C65.16,49.16,65.87,47.89,66.15,42.22Z" transform="translate(-7 -11.85)"/><path class="cls-2" d="M50,40.07a82.28,82.28,0,0,0,8.9-3.77s3.77.13.13-8.63.4-5-5.12-5l-3.91.4V40.21" transform="translate(-7 -11.85)"/><path class="cls-18" d="M58.51,26.89S61,33.76,60.38,35c0,0,1.91,7.36,3.22,6.85,0,0,2.43-1.78,2.61-4C66.21,37.86,64.83,25.47,58.51,26.89Z" transform="translate(-7 -11.85)"/><path class="cls-2" d="M50,53.14a.53.53,0,0,0,.68,0s2.42-2.83,3.63-2.29c0,0,1.89-.67.68-1.21l-5,.13V53" transform="translate(-7 -11.85)"/><path class="cls-2" d="M50,62.71S53.35,63,53.89,61c0,0,3.37-3.1,5.25-4.59s0-.13,0-.13a11.24,11.24,0,0,0-3.94.2L50,57.72Z" transform="translate(-7 -11.85)"/><path class="cls-18" d="M50,60.82a5.52,5.52,0,0,0,3.37-1.48s1.62-2.7,2.43-3.1L50,58.13Z" transform="translate(-7 -11.85)"/><path class="cls-17" d="M60.22,53.47l.14-.33S59.74,54,60.22,53.47Z" transform="translate(-7 -11.85)"/><path class="cls-17" d="M60.28,53.39l-.06.08c-.75,1.72-4.2,9.74-4.44,10.58a5.44,5.44,0,0,1-1.22,1s-3-.55-4.25-.17v0c0,.35-.06.7-.08,1a.57.57,0,0,1,.12.15.54.54,0,0,1,.07.19,9.77,9.77,0,0,0,5.49-1.13s5.53-4.44,7.28-7.54a11.81,11.81,0,0,0,1.75-4.72A9.58,9.58,0,0,0,65.21,51S60.89,52.69,60.28,53.39Z" transform="translate(-7 -11.85)"/><path class="cls-17" d="M64,52.06s-.81-1.35,1.21-1.08l-.54,1.35Z" transform="translate(-7 -11.85)"/><path class="cls-17" d="M67.09,41.82s1.89-2.29,2.43-1.88c0,0-.14-1.49-2.16-.27C67.36,39.67,66.69,41,67.09,41.82Z" transform="translate(-7 -11.85)"/><path class="cls-17" d="M64.8,50s2.16,1.62,2.7-.81c0,0,.13.68.13.81s-.4,1.21-2.15.94C65.48,51,62.78,52.2,64.8,50Z" transform="translate(-7 -11.85)"/><path class="cls-17" d="M68.44,41.42s.41,2,.41,2.42c0,0,.11-2.13.23-2.71a.34.34,0,0,1,0-.12C69.25,40.74,68.58,41,68.44,41.42Z" transform="translate(-7 -11.85)"/><path class="cls-2" d="M66.82,43s.27-.26.54.27v3s-.13,0-.8.54-1.08.13-1.08.81C65.48,47.62,66.42,43,66.82,43Z" transform="translate(-7 -11.85)"/><path class="cls-2" d="M66.29,47.75s-.54.94.4.94l-.81.27v-.67S65.61,47.62,66.29,47.75Z" transform="translate(-7 -11.85)"/><path class="cls-19" d="M35.3,39.4l0,.05a69.16,69.16,0,0,0,7,7.63c3,2.56,1,7,.14,10.78S48,64.05,48,64.05l2.29.81.14,1.35a10.89,10.89,0,0,1-2.29,0,11.19,11.19,0,0,1-2-.88s-3.1-1.48-3.77-2.42c0,0-4.31-5.12-4.45-5.79a26.09,26.09,0,0,1-1.34-5.53S34.55,40.27,35.3,39.4Z" transform="translate(-7 -11.85)"/><path class="cls-18" d="M50,60.69a5.58,5.58,0,0,1-3.37-1.49S45,56.51,44.19,56.1L50,58Z" transform="translate(-7 -11.85)"/><path class="cls-20" d="M35.43,41.28s3,11,3.1,14a6.22,6.22,0,0,0,3.23,5.25c1.22.67,1.22,3,1.22,3a7.72,7.72,0,0,1-1.08-1.08S38.12,57.72,38,57.32h0a23,23,0,0,1-1.48-5.8S34.89,42.23,35.43,41.28Z" transform="translate(-7 -11.85)"/><path class="cls-2" d="M50.12,39.8A82.28,82.28,0,0,1,41.22,36s-3.77.13-.13-8.63-.4-5,5.12-5l3.91.4V39.94" transform="translate(-7 -11.85)"/><path class="cls-20" d="M41.07,26.08s-2.35,8.79-2,10.47c0,0-2,9.53-2.88,8.67a12,12,0,0,1-1.49-5.58S36.74,23.38,41.07,26.08Z" transform="translate(-7 -11.85)"/><path class="cls-18" d="M43.82,26s-2.09,6.67-1.72,7.91c0,0-1.71,7.21-2.63,6.59a7.61,7.61,0,0,1-1.68-4.14S39.38,24.13,43.82,26Z" transform="translate(-7 -11.85)"/><path class="cls-21" d="M34.62,41.55a7.43,7.43,0,0,1-.94-1.08s-.81,2.43.54,4.05a7.17,7.17,0,0,1,.33-2.09A3,3,0,0,0,34.62,41.55Z" transform="translate(-7 -11.85)"/><path class="cls-21" d="M34.69,47.82a2.34,2.34,0,0,1,.67,1.35,2.56,2.56,0,0,0-.13-1.35S34.82,47.68,34.69,47.82Z" transform="translate(-7 -11.85)"/><path class="cls-21" d="M34.82,43.78s-.54,2.15.14,2.83,0-.81,0-.81Z" transform="translate(-7 -11.85)"/><path class="cls-17" d="M33.54,40.47a15.64,15.64,0,0,1,1.22,1.35c.27.41.13-.67.13-.67S33.81,39.94,33.54,40.47Z" transform="translate(-7 -11.85)"/><path class="cls-22" d="M43.78,15.82s-3.47-1-7.6,6.8,9.22-4.38,9.22-4.38Z" transform="translate(-7 -11.85)"/><path class="cls-22" d="M52.88,13.86S59,14.11,60.35,16l-.67,2.34L50.93,16.9S51.6,13.8,52.88,13.86Z" transform="translate(-7 -11.85)"/><path class="cls-23" d="M67.7,39.46l.46-.14s-.06-3.76-.19-4.84.4-3.1,0-4.18a6.51,6.51,0,0,1-.81-2.15c-.27-1.35.27-1.89-.27-3.37s-.27-3.24-.54-3.64,1.22-1.35,1-2-.54-.27-1.62-.68,0-2.15-.4-2.42a6,6,0,0,0-2.56-.81c-1.62-.27-.27-.67-2.43.41s-2.16.8-3.64.13-.13-2.16-.54-2.16-1.08.81-2.56,1.35-.81-.54-.54-1.48-2-.54-2.83.67a4,4,0,0,0-.21.38,1.28,1.28,0,0,1,.24.31c.09.17.16.69.31.78a.69.69,0,0,1,.3.76l0,.24a.57.57,0,0,1,.13.4c0,.17,0,.34-.07.51a.82.82,0,0,1,0,.35c-.06.27-.14.53-.22.8a.7.7,0,0,1,.41.62,3.89,3.89,0,0,1-.17,1,.78.78,0,0,1,0,.21c-.07.24-.15.49-.21.74a.62.62,0,0,1-.06.37c-.06.12-.12.24-.17.36a.59.59,0,0,1,0,.66c-.14.18-.27.34-.41.49a2.13,2.13,0,0,1-.07.27l.11,0a26.12,26.12,0,0,1,7,.94,5.22,5.22,0,0,1,5.66,4.31s.8,3.78,1.61,5c0,0,1.75,2.29,1.62,4.31,0,0,.54,5.8-.27,7.68,0,0-.27,1.35,0,1.48a3.12,3.12,0,0,0,1.21-2.69A11.07,11.07,0,0,0,67,40.81s0-1.12.79-1.3S67.7,39.46,67.7,39.46Z" transform="translate(-7 -11.85)"/><path class="cls-23" d="M55.85,14.94s1.61-1.63,6,.77C61.81,15.71,58.14,13.88,55.85,14.94Z" transform="translate(-7 -11.85)"/><path class="cls-23" d="M55.78,17.3s1.07-3.1,5.92-1.48C61.7,15.82,57.66,14.74,55.78,17.3Z" transform="translate(-7 -11.85)"/><path class="cls-23" d="M56,15.57s2.56-2.05,5.81,1.9C61.79,17.47,58.94,14.41,56,15.57Z" transform="translate(-7 -11.85)"/><path class="cls-23" d="M50.81,16s0,.05,0,.07c3.28-2.39,9.93-1.35,9.93-1.35C53.81,13.38,51.41,15.35,50.81,16Z" transform="translate(-7 -11.85)"/><path class="cls-23" d="M65.88,24.33s3,1.38.89,6C66.77,30.37,68.24,26.46,65.88,24.33Z" transform="translate(-7 -11.85)"/><path class="cls-23" d="M50.93,14.6S52,13.43,56.85,14C56.85,14,52.81,13.64,50.93,14.6Z" transform="translate(-7 -11.85)"/><path class="cls-23" d="M50.15,14.73l.06.09v0c2-2,5.56-1,5.56-1C52.26,12.63,50.73,13.93,50.15,14.73Z" transform="translate(-7 -11.85)"/><path class="cls-23" d="M65.22,18.63S68,19.8,66.57,25.15C66.57,25.15,67.5,20.69,65.22,18.63Z" transform="translate(-7 -11.85)"/><path class="cls-23" d="M51.35,14s2.93-1.48,5.29,3.06C56.64,17.08,54.49,13.49,51.35,14Z" transform="translate(-7 -11.85)"/><path class="cls-23" d="M56.45,17s1.08-3.1,5.93-1.48C62.38,15.55,58.34,14.47,56.45,17Z" transform="translate(-7 -11.85)"/><path class="cls-23" d="M54.7,15.68s.51-3.1,2.83-1.48C57.53,14.2,55.6,13.12,54.7,15.68Z" transform="translate(-7 -11.85)"/><path class="cls-23" d="M54.91,14.79s3.57-4.11,6.33.88C61.24,15.67,59,11.33,54.91,14.79Z" transform="translate(-7 -11.85)"/><path class="cls-23" d="M50.46,14.11S54,10,56.79,15C56.79,15,54.58,10.66,50.46,14.11Z" transform="translate(-7 -11.85)"/><path class="cls-23" d="M59.08,15s4.41-3.2,6,2.28C65.06,17.29,63.87,12.57,59.08,15Z" transform="translate(-7 -11.85)"/><path class="cls-23" d="M51.67,13.44s2.32-4.11,4.11.89C55.78,14.33,54.34,10,51.67,13.44Z" transform="translate(-7 -11.85)"/><path class="cls-23" d="M53.9,22.92s-3.26,3.13-2.76-2.05C51.14,20.87,50.62,25.33,53.9,22.92Z" transform="translate(-7 -11.85)"/><path class="cls-23" d="M62.25,25s-2.9,2.21-2.84-1.85C59.41,23.18,59.27,26.67,62.25,25Z" transform="translate(-7 -11.85)"/><path class="cls-23" d="M55.37,21.61s-2,2.83.54,3C55.91,24.58,53.62,24.44,55.37,21.61Z" transform="translate(-7 -11.85)"/><path class="cls-23" d="M57.66,23.23s.68,2-.67,1.88C57,25.11,58.34,25.52,57.66,23.23Z" transform="translate(-7 -11.85)"/><path class="cls-23" d="M56.33,23.45s.28,1.64.74,1C57.07,24.45,56.63,24.79,56.33,23.45Z" transform="translate(-7 -11.85)"/><path class="cls-23" d="M53.22,24a3.06,3.06,0,0,0,1.61-.68A4.76,4.76,0,0,1,53.22,24Z" transform="translate(-7 -11.85)"/><path class="cls-23" d="M50.06,23.08l0,.05c.1.25.45.68,1.65.63A1.93,1.93,0,0,1,50.06,23.08Z" transform="translate(-7 -11.85)"/><path class="cls-23" d="M50,23.36V14.47h1.17l1.39,1.09S51.19,23.77,50,23.36Z" transform="translate(-7 -11.85)"/><path class="cls-23" d="M50.72,15.21s-.27.14-1.21-1.08-2.56-.4-3-.4-1.62,1.35-3.24,1.62-2.42,1.07-1.48.8,1.75-.94.14.81.26.54-1.49,2.43-3.64,1.48-4.31,2.69-1.08,7.55-1.08,7.55A38.42,38.42,0,0,0,35,34.88c-.68,1.89,0,10.78,0,10.78A6.36,6.36,0,0,0,35.9,48C35,40.54,36,36.5,36,36.5l.05,0a4,4,0,0,1,.32-1.27,2.27,2.27,0,0,1,.61-.73c.21-.5.38-1,.57-1.53a11.88,11.88,0,0,1,.34-1.43.5.5,0,0,0,0-.11l.06,0a12.37,12.37,0,0,1,.71-1.7,3.55,3.55,0,0,1,.42-.64,6.23,6.23,0,0,0,0-.72,1.6,1.6,0,0,1,.7-.07,2.77,2.77,0,0,1,1.09-.57,9.18,9.18,0,0,1,1.44-1.78c.81-.95,1.75-.68,1.48.4s-2,.27-2,.27c.14,1.21,3.1.67,3.91-.14s.13-1.75.4-2.29,3.77-.8,3.77-.8l1-.79Z" transform="translate(-7 -11.85)"/><path class="cls-23" d="M49.17,22.69s-.13,3.1-3.63,1.48.94.14,2,0" transform="translate(-7 -11.85)"/><path class="cls-23" d="M36.91,21.75a8.5,8.5,0,0,1,4.85-3.37S39.34,21.61,38,21.61" transform="translate(-7 -11.85)"/><path class="cls-23" d="M37.09,22.2s2.24-6.59,8.65-5C45.74,17.23,40.4,15.66,37.09,22.2Z" transform="translate(-7 -11.85)"/><path class="cls-23" d="M35.74,23.28s2.24-6.59,8.65-5C44.39,18.3,39.05,16.74,35.74,23.28Z" transform="translate(-7 -11.85)"/><path class="cls-23" d="M39.47,20.17s1.26-6.84,7.84-6.18C47.31,14,41.8,13.22,39.47,20.17Z" transform="translate(-7 -11.85)"/><path class="cls-23" d="M41.81,18.16S40.66,9.71,48,16.22C48,16.22,41.78,10.47,41.81,18.16Z" transform="translate(-7 -11.85)"/><path class="cls-23" d="M44.82,17.92s2.41-6.53,8.78-4.75C53.6,13.17,48.3,11.47,44.82,17.92Z" transform="translate(-7 -11.85)"/><path class="cls-23" d="M35,27.85s1.27-6.84,7.84-6.18C42.86,21.67,37.35,20.9,35,27.85Z" transform="translate(-7 -11.85)"/><path class="cls-23" d="M35.19,26.74s-.66-3.47,2.25-4.86C37.44,21.88,35,23,35.19,26.74Z" transform="translate(-7 -11.85)"/><path class="cls-23" d="M35.19,33.32s-1.52-3.19,1-5.26C36.14,28.06,34,29.71,35.19,33.32Z" transform="translate(-7 -11.85)"/><path class="cls-23" d="M39.07,29A8.92,8.92,0,0,1,41,27.67l-1.88.14-.27.94Z" transform="translate(-7 -11.85)"/><path class="cls-23" d="M37,23.42s-2.71-6.78,5-4C42,19.44,35.39,16.87,37,23.42Z" transform="translate(-7 -11.85)"/><path class="cls-24" d="M49.84,40.61H48.71l-.28,1.08L47.09,46.8A39.9,39.9,0,0,1,49.7,42l.28-.14Z" transform="translate(-7 -11.85)"/><path class="cls-25" d="M48.9,41.15a4,4,0,0,1,3,0l-.23-.81a11.81,11.81,0,0,0-2.74,0v.81" transform="translate(-7 -11.85)"/><path class="cls-26" d="M50.05,40.41a5.89,5.89,0,0,1,1.62,0s.4,6.33,4.31,7c0,0,5.39,1.49,7.81-3.1a9.35,9.35,0,0,0,.95-3.5s.27-1.48,1.34-1.48l1.62.13v-.4l-1.48-.94A2.71,2.71,0,0,1,64.47,38,9.92,9.92,0,0,1,63,37.44a9.93,9.93,0,0,0-7.95.14s-2.15.81-2.56,1.48,0,.13,0,.13a14.28,14.28,0,0,0-2.42-.13A10.12,10.12,0,0,0,50.05,40.41Z" transform="translate(-7 -11.85)"/><path class="cls-3" d="M59.55,37.11s3.23.13,4.18,2.15a9.49,9.49,0,0,1,.06,4s-1.88,4.31-5.39,3.9c0,0-3.9.27-5-2.83a5.52,5.52,0,0,1-.41-4S53.82,37.17,59.55,37.11Z" transform="translate(-7 -11.85)"/><path class="cls-21" d="M56.71,47s.95-1.4,1.63-1.4h0s2.56-3.5,3.23-3.63l2.18-2.59h0v.07l0,.13,0,.16-2,2.35s-.14.41-.14.27S59.55,46,59,46.13c0,0,1.32.79,1,.87l-.2,0-.22.05-.37,0h-.51l-.23,0H58l-.33,0-.26,0-.18,0L57,47Z" transform="translate(-7 -11.85)"/><path class="cls-26" d="M50.68,40.21a6,6,0,0,0-1.61,0s-.27,6.34-4.16,7.1c0,0-5.36,1.6-7.88-2.93a9.31,9.31,0,0,1-1-3.48s-.3-1.47-1.38-1.45l-.16-1.21a2.73,2.73,0,0,0,1.75-.17,10.49,10.49,0,0,0,1.47-.58,10,10,0,0,1,8,0s2.17.77,2.59,1.43,0,.13,0,.13a7.21,7.21,0,0,1,2.42-.18Z" transform="translate(-7 -11.85)"/><path class="cls-3" d="M41.11,37.12s-3.23.21-4.13,2.25a9.63,9.63,0,0,0,0,4s2,4.27,5.48,3.79c0,0,3.91.19,4.92-2.94a5.52,5.52,0,0,0,.32-4S46.84,37.06,41.11,37.12Z" transform="translate(-7 -11.85)"/><path class="cls-21" d="M41.09,40.12l-3.67-1.35-.09,0c-.11.18-.21.33-.3.49l0,.1-.06.14a.41.41,0,0,0,0,.07s0,.08,0,.12l4.3,1.37C40.52,40.51,41.09,40.12,41.09,40.12Z" transform="translate(-7 -11.85)"/><path class="cls-26" d="M49,40.47a9.83,9.83,0,0,1,2.64,0L51.6,39a6.59,6.59,0,0,0-3.37,0Z" transform="translate(-7 -11.85)"/><path class="cls-26" d="M51.6,39A4.5,4.5,0,0,1,53,39.4l-.54.81-.74.07Z" transform="translate(-7 -11.85)"/><path class="cls-26" d="M34.49,38.32v1.35l.39.39h0l.14.14s-.14-1.22,0-1.35-.41-.41-.41-.41v.68" transform="translate(-7 -11.85)"/><path class="cls-27" d="M46.48,41.72s-.12-.46-1.54-.92a30.16,30.16,0,0,1-3.13-.06,1.85,1.85,0,0,1-.94.12c-.36-.12,0,.34,0,.34a2,2,0,0,1,1.18.46C42.11,42.18,46.3,41.78,46.48,41.72Z" transform="translate(-7 -11.85)"/><path class="cls-28" d="M55,40a6.36,6.36,0,0,1,3.58-.58s-.46-.51-2.07-.28A2.72,2.72,0,0,0,55,40Z" transform="translate(-7 -11.85)"/><path class="cls-29" d="M54.5,40.41A5,5,0,0,1,58,39.33a3.91,3.91,0,0,1,2.69,1.08s.41.27-1.75,0c0,0-2.56,0-3.91.13C55,40.54,53.82,40.81,54.5,40.41Z" transform="translate(-7 -11.85)"/><path class="cls-30" d="M56.17,39.54s-.36.64.1.92c0,0,1.8,0,2.21-.05a.87.87,0,0,0,.1-1A5.15,5.15,0,0,0,56.17,39.54Z" transform="translate(-7 -11.85)"/><path class="cls-31" d="M53.69,40.27s3.5-3.9,6.87-.81C60.56,39.46,57.73,36.63,53.69,40.27Z" transform="translate(-7 -11.85)"/><path class="cls-31" d="M60,39.84a2.47,2.47,0,0,0,1.27.71A1.59,1.59,0,0,1,60,39.84Z" transform="translate(-7 -11.85)"/><path class="cls-27" d="M53.89,41.69a5.83,5.83,0,0,0,5.12.54,4.82,4.82,0,0,1,2.09-.74,3,3,0,0,0-2.16.13c-.94.54-4.85,0-4.58-.4A.5.5,0,0,0,53.89,41.69Z" transform="translate(-7 -11.85)"/><path class="cls-32" d="M53.89,41.69s.13-.54,1.75-1.08a33.62,33.62,0,0,0,3.57-.07,2.08,2.08,0,0,0,1.08.14c.4-.14,0,.4,0,.4a2.17,2.17,0,0,0-1.35.54C58.88,42.23,54.09,41.75,53.89,41.69Z" transform="translate(-7 -11.85)"/><path class="cls-33" d="M53.89,41.69s.27-.68.67-.76C54.56,40.93,53.89,41.15,53.89,41.69Z" transform="translate(-7 -11.85)"/><path class="cls-31" d="M54.62,40.31a2.61,2.61,0,0,1,2.17-1.25S55.83,39,54.62,40.31Z" transform="translate(-7 -11.85)"/><path class="cls-33" d="M53.89,40.88a3.52,3.52,0,0,1,1.75-1.21s2.63-1,4.52.33c0,0,.52.45.56.46s.09.08-.81,0,.06-.38-1.29-1.08a8.29,8.29,0,0,0-2.49.2,4,4,0,0,0-1.43.84c.13,0,.12,0,.26.09A3.39,3.39,0,0,0,53.89,40.88Z" transform="translate(-7 -11.85)"/><path class="cls-28" d="M45.91,40.22a6.36,6.36,0,0,0-3.58-.58s.46-.51,2.07-.28A2.72,2.72,0,0,1,45.91,40.22Z" transform="translate(-7 -11.85)"/><path class="cls-29" d="M46.41,40.68a5,5,0,0,0-3.5-1.08,3.94,3.94,0,0,0-2.7,1.08s-.4.27,1.76,0c0,0,2.56,0,3.9.13C45.87,40.81,47.09,41.08,46.41,40.68Z" transform="translate(-7 -11.85)"/><path class="cls-30" d="M44.74,39.81s.36.64-.1.92c0,0-1.8,0-2.21,0a.85.85,0,0,1-.1-1A5.15,5.15,0,0,1,44.74,39.81Z" transform="translate(-7 -11.85)"/><path class="cls-31" d="M46.61,40.21s-3.69-3.32-6.21.15C40.4,40.36,42.48,37.22,46.61,40.21Z" transform="translate(-7 -11.85)"/><path class="cls-31" d="M40.94,40.17a2,2,0,0,1-1.37.58A1.23,1.23,0,0,0,40.94,40.17Z" transform="translate(-7 -11.85)"/><path class="cls-27" d="M47,41.88a4.47,4.47,0,0,1-5.12.77,4.1,4.1,0,0,0-2.09-1,2.2,2.2,0,0,1,2.16.19c.94.76,4.85,0,4.58-.57C46.55,41.22,47,41.22,47,41.88Z" transform="translate(-7 -11.85)"/><path class="cls-32" d="M46.34,41.86s-.11-.46-1.53-.92c0,0-2.31.05-3.13-.06a1.82,1.82,0,0,1-1,.11c-.35-.11,0,.35,0,.35a1.93,1.93,0,0,1,1.18.46C42,42.32,46.17,41.91,46.34,41.86Z" transform="translate(-7 -11.85)"/><path class="cls-33" d="M47,42s-.27-.68-.67-.76C46.35,41.2,47,41.42,47,42Z" transform="translate(-7 -11.85)"/><path class="cls-31" d="M46.28,40.57a2.59,2.59,0,0,0-2.16-1.24S45.08,39.26,46.28,40.57Z" transform="translate(-7 -11.85)"/><path class="cls-33" d="M47,41.15a3.58,3.58,0,0,0-1.75-1.25s-2.63-1-4.52.35c0,0-.52.46-.56.47s-.1.08.81.05-.07-.39,1.29-1.11a8.06,8.06,0,0,1,2.49.21,4,4,0,0,1,1.43.86c-.14,0-.13,0-.27.09A3.28,3.28,0,0,1,47,41.15Z" transform="translate(-7 -11.85)"/><path class="cls-34" d="M42.29,39.69a.24.24,0,0,1,0-.14" transform="translate(-7 -11.85)"/><path class="cls-33" d="M41.63,40.07l.81-.4C42.71,39.53,41.49,39.67,41.63,40.07Z" transform="translate(-7 -11.85)"/><path class="cls-35" d="M54.56,49.91s.68-.54.95.4c0,0,1.21,3.5,2.69,3.1v1.21s1,1.38,1.26,1a12.53,12.53,0,0,0,.72-2.92s-.64-2.88-5.35-5a2.12,2.12,0,0,1,.34,1s0,.94-.54,1.08S54.56,49.91,54.56,49.91Z" transform="translate(-7 -11.85)"/><path class="cls-36" d="M50.93,51.12s1.07-2.16,3-1.48A12.79,12.79,0,0,0,50.93,51.12Z" transform="translate(-7 -11.85)"/><path class="cls-4" d="M49.78,51.32s-.45-3.37,1-4.58a2.17,2.17,0,0,0,.74-2.83s2.08,2.29.89,4.45a17,17,0,0,1-1.92,3A1.08,1.08,0,0,1,49.78,51.32Z" transform="translate(-7 -11.85)"/><path class="cls-25" d="M53.28,47.41s.68-.27.95-.13c0,0-1.35-3.1-2.56-3.37A9.26,9.26,0,0,1,53.28,47.41Z" transform="translate(-7 -11.85)"/><path class="cls-37" d="M51.77,49.72s1-1.63,2.19-1.09a.78.78,0,0,1,.27.94s.13.13-.27.13c0,0-1-.71-2.29.46Z" transform="translate(-7 -11.85)"/><path class="cls-24" d="M53.38,45.66a23.35,23.35,0,0,1,1.72,3.17S54.35,46.27,53.38,45.66Z" transform="translate(-7 -11.85)"/><path class="cls-37" d="M52,49.92a11.35,11.35,0,0,0-1,1.2,5.07,5.07,0,0,1,1-1.67" transform="translate(-7 -11.85)"/><path class="cls-38" d="M50.79,51.26s0,.28-.78,0c0,0-.16-.14.31-.28h.47s.31.14,0,.28" transform="translate(-7 -11.85)"/><path class="cls-24" d="M54.68,47.65a10.21,10.21,0,0,1,5.68,5,10.76,10.76,0,0,1-1.28,4.11s1.34-3.5,1.08-4C60.16,52.67,59.44,50,54.68,47.65Z" transform="translate(-7 -11.85)"/><path class="cls-39" d="M54.4,49.92a.69.69,0,0,1,1,.12,5.18,5.18,0,0,0,1.84,3.1,1,1,0,0,0,.95.28s-.09,0,0,1.2c0,0,.54-.4.27-1.88a3.78,3.78,0,0,0-2.83-2.83C54.43,49.64,55.19,49.54,54.4,49.92Z" transform="translate(-7 -11.85)"/><path class="cls-40" d="M50.81,46.92a2.33,2.33,0,0,0,.86-3c-.88-1.87-.07,0-.07,0s-.94-2.43-1.21-2.29c0,0-.27-.95-.41,5.12v.94S50.7,46.77,50.81,46.92Z" transform="translate(-7 -11.85)"/><path class="cls-40" d="M49.58,46.92a3.65,3.65,0,0,1-.42-3c.43-1.87,0,0,0,0s.31-1.62.49-2.14c0-.12.08-.18.1-.15s.14-.95.2,5.12v.94S49.63,46.77,49.58,46.92Z" transform="translate(-7 -11.85)"/><path class="cls-40" d="M50,41.55s-.3.11-.28.26.15,4.73.15,4.73l.13.81.14-.14.27-.81.27-1.07.27-1.89-.59-1.77S50,41.42,50,41.55Z" transform="translate(-7 -11.85)"/><path class="cls-36" d="M46.48,50a7.41,7.41,0,0,1,2.69,1.08,7,7,0,0,0-2.12-1.89S46.2,49.37,46.48,50Z" transform="translate(-7 -11.85)"/><path class="cls-4" d="M50.43,51.34a2.92,2.92,0,0,1-1-.09,15.54,15.54,0,0,0-2.42-2,2,2,0,0,0-.54.27s-.54-.4,0-.67a1.68,1.68,0,0,1,1.75.13c.81.41.81.14,1.08-.4s.94.54.94.94S50.61,51.16,50.43,51.34Z" transform="translate(-7 -11.85)"/><path class="cls-25" d="M48.1,47.89A12.21,12.21,0,0,1,48.9,43a13,13,0,0,0-1.34,3.91A1.53,1.53,0,0,0,48.1,47.89Z" transform="translate(-7 -11.85)"/><path class="cls-24" d="M47,46.81a2.79,2.79,0,0,0-1.48,1.75s-.14,1.35.8,1.35c0,0-.94.27-.94-1.35A2.43,2.43,0,0,1,47,46.81Z" transform="translate(-7 -11.85)"/><path class="cls-37" d="M46.33,49s.63-.65,2,.06a5.22,5.22,0,0,0-1.05-.65C46.88,48.29,45.77,48.93,46.33,49Z" transform="translate(-7 -11.85)"/><path class="cls-35" d="M45.82,50.25s-.75-.5-1,.46c0,0-1.12,3.56-2.74,3.25l.06,1.2s-1,1.43-1.3,1.1a11.29,11.29,0,0,1-.93-2.87s.53-2.91,5.5-5.3a2,2,0,0,0-.31,1s0,.94.64,1S45.82,50.25,45.82,50.25Z" transform="translate(-7 -11.85)"/><path class="cls-24" d="M45.13,48.15s-4,1.52-5.41,5.18a10.52,10.52,0,0,0,1.5,4s-1.53-3.37-1.29-3.91C39.93,53.39,40.5,50.76,45.13,48.15Z" transform="translate(-7 -11.85)"/><path class="cls-39" d="M46,50.26a.78.78,0,0,0-1,.17s0,1.36-1.82,3.2a1.11,1.11,0,0,1-1,.33s.1,0,0,1.2c0,0-.6-.37-.39-1.86a4,4,0,0,1,2.9-3C46,50,45.13,49.92,46,50.26Z" transform="translate(-7 -11.85)"/><path class="cls-35" d="M45.63,48a1.36,1.36,0,0,0-.18,1.12s.18.83.67.8a1.53,1.53,0,0,0-1.26.65c-.4.67-.27-.94-.27-.94l.14-.81S45.19,48,45.63,48Z" transform="translate(-7 -11.85)"/><path class="cls-23" d="M52.81,38.32s1.48-1.48,5-1.89a26,26,0,0,1,5.39,1l.67-.27a2.45,2.45,0,0,0-.67-1A3.48,3.48,0,0,0,61.44,35a5.64,5.64,0,0,0-2.3-.27,32.42,32.42,0,0,0-3.36-.13,4.31,4.31,0,0,0-2,1.07A2.25,2.25,0,0,0,52.81,38.32Z" transform="translate(-7 -11.85)"/><path class="cls-23" d="M55.71,37.31l2-.29a1.51,1.51,0,0,0,1.05-1.84,1.53,1.53,0,0,0-1.85-1l-2,.29a1.51,1.51,0,0,0-1,1.84,1.53,1.53,0,0,0,1.85,1.05Z" transform="translate(-7 -11.85)"/><path class="cls-23" d="M56.58,34.68s0-.13,1.35-.13c0,0-1.08.13-1.35.13Z" transform="translate(-7 -11.85)"/><path class="cls-23" d="M54,35.47a3.18,3.18,0,0,1,.61-.52S54.15,35.31,54,35.47Z" transform="translate(-7 -11.85)"/><path class="cls-23" d="M61.66,35s.31-.07.72.33A5.38,5.38,0,0,0,61.66,35Z" transform="translate(-7 -11.85)"/><path class="cls-23" d="M53.75,37.65a3,3,0,0,0-.83.62S53.49,37.65,53.75,37.65Z" transform="translate(-7 -11.85)"/><path class="cls-23" d="M55.86,36.8a11,11,0,0,1,1.26-.23A2.29,2.29,0,0,0,55.86,36.8Z" transform="translate(-7 -11.85)"/><path class="cls-23" d="M54.11,37.47a3.56,3.56,0,0,1,1.13-.36A4.37,4.37,0,0,0,54.11,37.47Z" transform="translate(-7 -11.85)"/><path class="cls-23" d="M52.7,37.06s.11-.76.52-.9A1.21,1.21,0,0,0,52.7,37.06Z" transform="translate(-7 -11.85)"/><path class="cls-41" d="M53,37.65s-.14-.81.4-1.08A1.27,1.27,0,0,0,53,37.65Z" transform="translate(-7 -11.85)"/><path class="cls-41" d="M53.49,37.51a6.06,6.06,0,0,1,3.36-1.35S54.56,36.16,53.49,37.51Z" transform="translate(-7 -11.85)"/><path class="cls-41" d="M59.82,35.22a3.74,3.74,0,0,1,2.83,1.48A3.52,3.52,0,0,0,59.82,35.22Z" transform="translate(-7 -11.85)"/><path class="cls-41" d="M55.1,35.49a5.64,5.64,0,0,1,2.29-.27S55.78,35,55.1,35.49Z" transform="translate(-7 -11.85)"/><path class="cls-41" d="M58.47,35.89A11.93,11.93,0,0,1,61.66,37,9.43,9.43,0,0,0,58.47,35.89Z" transform="translate(-7 -11.85)"/><path class="cls-41" d="M57.39,35.89a4.5,4.5,0,0,1,1.49-.27A2.57,2.57,0,0,0,57.39,35.89Z" transform="translate(-7 -11.85)"/><path class="cls-23" d="M47.81,38.42s-1.46-1.31-4.89-1.64c0,0-.35-.21-5.25.9L37,37.44a2.23,2.23,0,0,1,.65-.85,3.34,3.34,0,0,1,1.7-1.1,5.89,5.89,0,0,1,2.23-.26,32.19,32.19,0,0,1,3.29-.15,4.18,4.18,0,0,1,2,.94A1.94,1.94,0,0,1,47.81,38.42Z" transform="translate(-7 -11.85)"/><path class="cls-23" d="M45.35,34.75l-2-.24a1.5,1.5,0,0,0-1.5,1.5,1.54,1.54,0,0,0,1.5,1.5l2,.24a1.5,1.5,0,0,0,1.5-1.5,1.54,1.54,0,0,0-1.5-1.5Z" transform="translate(-7 -11.85)"/><path class="cls-23" d="M44.63,35.07s0-.12-1.32-.11c0,0,1.06.11,1.32.11Z" transform="translate(-7 -11.85)"/><path class="cls-23" d="M46.67,35.88a3,3,0,0,0-.6-.45S46.47,35.74,46.67,35.88Z" transform="translate(-7 -11.85)"/><path class="cls-23" d="M38.74,35.82a.92.92,0,0,0-.7.31A6.19,6.19,0,0,1,38.74,35.82Z" transform="translate(-7 -11.85)"/><path class="cls-23" d="M46.88,37.83a2.83,2.83,0,0,1,.82.55S47.14,37.82,46.88,37.83Z" transform="translate(-7 -11.85)"/><path class="cls-23" d="M44.82,37.09a10.08,10.08,0,0,0-1.24-.19A2.48,2.48,0,0,1,44.82,37.09Z" transform="translate(-7 -11.85)"/><path class="cls-23" d="M46.53,37.67a3.89,3.89,0,0,0-1.1-.31A4.5,4.5,0,0,1,46.53,37.67Z" transform="translate(-7 -11.85)"/><path class="cls-23" d="M47.9,37.29s-.11-.68-.51-.79A1,1,0,0,1,47.9,37.29Z" transform="translate(-7 -11.85)"/><path class="cls-41" d="M47.67,37.82s.12-.72-.41-1A1.1,1.1,0,0,1,47.67,37.82Z" transform="translate(-7 -11.85)"/><path class="cls-41" d="M46,36.87a7.92,7.92,0,0,0-4-.66S44.62,35.85,46,36.87Z" transform="translate(-7 -11.85)"/><path class="cls-41" d="M40,36s-1.06-.11-2.21,1.35A2.74,2.74,0,0,1,40,36Z" transform="translate(-7 -11.85)"/><path class="cls-41" d="M43.66,35.64a5.93,5.93,0,0,0-2.24-.22A4,4,0,0,1,43.66,35.64Z" transform="translate(-7 -11.85)"/><path class="cls-41" d="M42.26,36.31a12.29,12.29,0,0,0-3.1,1A9.62,9.62,0,0,1,42.26,36.31Z" transform="translate(-7 -11.85)"/><path class="cls-41" d="M46,36a4.56,4.56,0,0,0-1.45-.23A2.6,2.6,0,0,1,46,36Z" transform="translate(-7 -11.85)"/><path class="cls-23" d="M38.41,37.28s0-.12-1.26.37c0,0,1-.28,1.26-.37Z" transform="translate(-7 -11.85)"/><polygon class="cls-42" points="42.83 42.62 42.85 42.91 43.39 42.91 43.2 42.62 42.83 42.62"/><polygon class="cls-43" points="41.9 45.06 42.04 45.74 43.25 45.87 43.52 45.74 43.39 45.47 43.39 45.2 43.25 45.06 41.9 45.06"/><polygon class="cls-44" points="41.9 43.04 41.9 42.91 42.86 43.05 43.39 43.18 43.12 43.58 43.02 44 42.71 44.26 41.9 43.85 41.77 43.31 41.9 43.04"/><path class="cls-44" d="M48.9,54.89a1.35,1.35,0,0,1,1,.14A7.63,7.63,0,0,1,50,56.24l.27.54-.13.27a7.64,7.64,0,0,1-1.08.13c-.41,0-.67-1.21-.67-1.21l.13-.81s.17-.48.42-.31" transform="translate(-7 -11.85)"/><path class="cls-45" d="M55.78,54.35a3.6,3.6,0,0,1,0,1.22A19.58,19.58,0,0,1,58,54.2l.06-.12a.63.63,0,0,0-.41-.13h-2Z" transform="translate(-7 -11.85)"/><path class="cls-46" d="M43.42,54.26a1.27,1.27,0,0,0,0,.61,16,16,0,0,0-1.51-.64l0,0a.51.51,0,0,1,.27-.08h0l1.34,0Z" transform="translate(-7 -11.85)"/><polygon class="cls-43" points="43.12 45.06 43.12 45.87 44.6 46.01 45.81 45.74 46.89 45.2 47.7 44.66 46.48 44.39 44.46 44.66 43.12 45.06"/><path class="cls-44" d="M55.78,54.35a1.39,1.39,0,0,1,.13.41s.07.55-.1.68S55.78,54.35,55.78,54.35Z" transform="translate(-7 -11.85)"/><path class="cls-47" d="M51.47,57.86s.14-.8,0-1C51.47,56.91,51.74,57.13,51.47,57.86Z" transform="translate(-7 -11.85)"/><path class="cls-47" d="M50.38,57.86s-.14-.8,0-1C50.38,56.91,50.11,57.13,50.38,57.86Z" transform="translate(-7 -11.85)"/><path class="cls-47" d="M52.9,57.58s.23-.78.11-.94C53,56.64,53.26,56.89,52.9,57.58Z" transform="translate(-7 -11.85)"/><path class="cls-44" d="M55.83,54.71s.08-.36-.59-.36a.49.49,0,0,0-.14.27Z" transform="translate(-7 -11.85)"/><path class="cls-44" d="M55.81,54.59s-3.47-.44-4.68,0a3.93,3.93,0,0,0-.81.4s-.26-1.57-.33.17a.53.53,0,0,1,0,.39h0c0,.17,0,.37,0,.59a1.59,1.59,0,0,1,.06.3.82.82,0,0,1-.05.47v.16s1.62.27,1.89,0a.5.5,0,0,0,.13-.27s1.15.2,1.55-.2a.59.59,0,0,0,.49,0s1.61-.67,1.77-1.14A1.81,1.81,0,0,0,55.81,54.59Z" transform="translate(-7 -11.85)"/><path class="cls-48" d="M54.83,54.89a7.22,7.22,0,0,1,0,1.75S55.1,56.24,54.83,54.89Z" transform="translate(-7 -11.85)"/><path class="cls-42" d="M50.18,55.36a1.17,1.17,0,0,1,1.08-.54s.74.07.74.21a1.13,1.13,0,0,1,1-.41s.67,0,.67.41c0,0,.13-.41.81-.41a.47.47,0,0,1,.4.27.61.61,0,0,1,.54-.4s.54,0,.54.27v-.61s-3.77-.47-5.79.2l-.14.27A1.34,1.34,0,0,0,50.18,55.36Z" transform="translate(-7 -11.85)"/><path class="cls-49" d="M58.13,54.15s-3.36,3-5.12,4.31a7,7,0,0,1-3,1.22v-2a5.35,5.35,0,0,0,3-.4S57.86,54,58.13,54.15Z" transform="translate(-7 -11.85)"/><path class="cls-49" d="M58.2,54.08s-2,0-4.31.14c0,0-3.37,0-3.91.4v-.54a2.61,2.61,0,0,1,1.42-.33S57.06,53.48,58.2,54.08Z" transform="translate(-7 -11.85)"/><path class="cls-49" d="M58.15,54.08s.14-.11-.11.15c0,0-.11.12,0-.15Z" transform="translate(-7 -11.85)"/><path class="cls-48" d="M52,55a7.22,7.22,0,0,1,0,1.75S52.27,56.37,52,55Z" transform="translate(-7 -11.85)"/><path class="cls-48" d="M53.62,55a5.57,5.57,0,0,1,0,1.48S53.89,56.17,53.62,55Z" transform="translate(-7 -11.85)"/><path class="cls-50" d="M44.15,54.35a3.6,3.6,0,0,0,0,1.22,19.58,19.58,0,0,0-2.23-1.37l-.06-.12a.63.63,0,0,1,.41-.13h2Z" transform="translate(-7 -11.85)"/><path class="cls-43" d="M49.56,57.25a.68.68,0,0,1-.83-.47l0-.2-.23-.07-2-.27-1.21.27.81.54,1.08.54,1.21.27,1.48-.14v-.6A.59.59,0,0,1,49.56,57.25Z" transform="translate(-7 -11.85)"/><path class="cls-44" d="M44.15,54.35a1.39,1.39,0,0,0-.13.41s-.07.55.1.68S44.15,54.35,44.15,54.35Z" transform="translate(-7 -11.85)"/><path class="cls-47" d="M48.46,57.86s-.14-.8,0-1C48.46,56.91,48.19,57.13,48.46,57.86Z" transform="translate(-7 -11.85)"/><path class="cls-47" d="M49.61,57.23a4.49,4.49,0,0,1-.06.63,1.54,1.54,0,0,0,.12-.65Z" transform="translate(-7 -11.85)"/><path class="cls-47" d="M47,57.58s-.23-.78-.11-.94C46.92,56.64,46.67,56.89,47,57.58Z" transform="translate(-7 -11.85)"/><path class="cls-44" d="M44.1,54.71s-.08-.36.59-.36a.49.49,0,0,1,.14.27Z" transform="translate(-7 -11.85)"/><path class="cls-44" d="M49.93,55c0-1.17-.21-.6-.28-.25A.69.69,0,0,1,49.93,55Z" transform="translate(-7 -11.85)"/><path class="cls-44" d="M48.73,56.78c0-.21-.07-.43-.11-.64a1.15,1.15,0,0,1,.24-1.28.54.54,0,0,1,.27-.16l-.33-.14c-1.21-.41-4.68,0-4.68,0a1.81,1.81,0,0,0,0,.85c.16.47,1.77,1.14,1.77,1.14a.59.59,0,0,0,.49,0c.4.4,1.55.2,1.55.2a.5.5,0,0,0,.13.27,1.7,1.7,0,0,0,.94.11A.58.58,0,0,1,48.73,56.78Z" transform="translate(-7 -11.85)"/><path class="cls-48" d="M45.1,54.89a7.22,7.22,0,0,0,0,1.75S44.83,56.24,45.1,54.89Z" transform="translate(-7 -11.85)"/><path class="cls-42" d="M48.88,54.84a.71.71,0,0,1,1,.14,2,2,0,0,0,0-.36l-.14-.27c-2-.67-5.79-.2-5.79-.2v.61c0-.27.54-.27.54-.27a.61.61,0,0,1,.54.4.47.47,0,0,1,.4-.27c.68,0,.81.41.81.41,0-.41.67-.41.67-.41a1.13,1.13,0,0,1,1,.41c0-.14.74-.21.74-.21Z" transform="translate(-7 -11.85)"/><path class="cls-49" d="M41.8,54.15a50.31,50.31,0,0,0,5.12,4.31,7,7,0,0,0,3,1.22v-2a6.2,6.2,0,0,1-3-.4S42.07,54,41.8,54.15Z" transform="translate(-7 -11.85)"/><path class="cls-49" d="M41.76,54.08s2,0,4.31.13c0,0,3.37,0,3.91.41v-.54l-1.41-.34S42.71,53.28,41.76,54.08Z" transform="translate(-7 -11.85)"/><path class="cls-49" d="M41.78,54.08s-.14-.11.11.15c0,0,.11.12,0-.15Z" transform="translate(-7 -11.85)"/><path class="cls-48" d="M47.93,55a7.22,7.22,0,0,0,0,1.75S47.66,56.37,47.93,55Z" transform="translate(-7 -11.85)"/><path class="cls-48" d="M46.31,55a5.57,5.57,0,0,0,0,1.48S46,56.17,46.31,55Z" transform="translate(-7 -11.85)"/><path class="cls-48" d="M50.23,55.31A7.74,7.74,0,0,0,50,57.05S49.76,56.61,50.23,55.31Z" transform="translate(-7 -11.85)"/><polygon class="cls-34" points="41.63 43.04 41.77 42.77 43.28 42.88 43.92 43.31 43.39 43.45 43.25 43.31 43.12 43.72 42.98 44.12 42.44 43.98 41.63 43.04"/><path class="cls-42" d="M48.57,54.83s1.28-.07,1.41.33.34-.42.34-.42A2.31,2.31,0,0,0,48.57,54.83Z" transform="translate(-7 -11.85)"/><path class="cls-48" d="M49.87,55.05s.29.53.14.67S50.31,55.5,49.87,55.05Z" transform="translate(-7 -11.85)"/><polyline class="cls-49" points="42.98 42.23 42.98 42.23 42.85 42.23 42.71 42.5 42.98 42.77 43.12 42.64 42.98 42.23"/><polygon class="cls-49" points="42.86 45.81 43.07 45.81 43.25 46.28 43.05 47.81 42.84 47.82 42.44 47.49 42.86 45.81"/><path class="cls-42" d="M44.05,54.62s-.12-.22-.73-.51h1.09l-.37.53" transform="translate(-7 -11.85)"/><path class="cls-21" d="M67.57,42s1.61-2,1.88-2c0,0,.81-.4.54,1.35a10.24,10.24,0,0,1-.67,2.56s-.41.14-.41-.13c0,0,.14-3.37-.13-2.56C68.78,41.22,68.91,40.81,67.57,42Z" transform="translate(-7 -11.85)"/><path class="cls-21" d="M67,45.26s.27.94,0,1.35c0,0,1.07.26,1.21-1.62,0,0,.13-1.75-1.08-2A18.27,18.27,0,0,1,67,45.26Z" transform="translate(-7 -11.85)"/><path class="cls-21" d="M66.69,47.62s-1.08.13-.67.8c0,0,.33.75.87.21,0,0,.41,0-.13.54,0,0-1.08.4-1.22-.41C65.54,48.76,65.41,47.41,66.69,47.62Z" transform="translate(-7 -11.85)"/><path class="cls-21" d="M68.44,46.54a1.46,1.46,0,0,1-.54,1.08s-.4.13-.4.4c0,0-.18-.3.24-.67l.1-.07C68.37,46.87,68.24,46.87,68.44,46.54Z" transform="translate(-7 -11.85)"/></svg>