<svg xmlns="http://www.w3.org/2000/svg" viewBox="0 0 339.19 329"><defs><style>.cls-1{fill:#eab39b;}.cls-2{fill:#e2ab98;}.cls-3,.cls-39{fill:#ce9e89;}.cls-4{fill:#af8475;}.cls-5{fill:#fff;}.cls-6,.cls-7{fill:#d8d8d8;}.cls-6{opacity:0.1;}.cls-39,.cls-7{opacity:0.2;}.cls-8{fill:#161619;}.cls-9{fill:#8e8ebc;}.cls-10{fill:#aaaae0;}.cls-11{fill:#8b8bb7;}.cls-12{fill:#9793cc;}.cls-13{fill:#8484b2;}.cls-14{fill:#7676a5;}.cls-15,.cls-34{fill:none;}.cls-15{stroke:#9793cc;stroke-miterlimit:10;}.cls-16{fill:#7777a5;}.cls-17{fill:#ddaa9e;}.cls-18{fill:#dba697;}.cls-19{fill:#d3a49b;}.cls-20{fill:#c69b95;}.cls-21{fill:#7c6259;opacity:0.5;}.cls-22{fill:#211317;}.cls-23{fill:#2a171c;}.cls-24{fill:#7a5e57;}.cls-25{fill:#9e786a;}.cls-26{fill:#351d13;}.cls-27{fill:#b78c80;}.cls-28{fill:#c19281;}.cls-29{fill:#d8d5d4;}.cls-30{fill:#2b221e;}.cls-31{fill:#493930;}.cls-32{fill:#c49686;}.cls-33{fill:#775d52;}.cls-35{fill:#d19e8c;}.cls-36{fill:#352925;}.cls-37{fill:#bc9084;}.cls-38{fill:#a0796e;}.cls-40{fill:#eab9a9;}.cls-41{fill:#1e1014;}.cls-42{fill:#b78080;}.cls-43{fill:#e0dada;}.cls-44{fill:#eadfdf;}.cls-45{fill:#755656;}.cls-46{fill:#705454;}.cls-47{fill:#c6c2c2;}.cls-48{fill:#ddd4d4;}.cls-49{fill:#d39090;}.cls-50{fill:#7c5c5c;}</style></defs><title>headshotVECTORCloud</title><g id="neck_skin" data-name="neck skin"><path class="cls-1" d="M442.46,846.05c-1.1-1.1-35.27,18.19-35.27,18.19a14.36,14.36,0,0,0-8.39,3.47,2.51,2.51,0,0,1,.48,1.67,31.84,31.84,0,0,1-.81,5.51,3,3,0,0,1,.85.89,3.1,3.1,0,0,1,.36,1.79c.95,0,1.9,0,2.83.12a2.78,2.78,0,0,1,2.63,3.06A2.67,2.67,0,0,1,403.6,884a2.58,2.58,0,0,1,.73,1.47,3,3,0,0,1,.44,3.68,2.61,2.61,0,0,1-.87,3.83c-1,.52-2.11,1-3.18,1.43,2.83-.44,4.84,3.39,2.14,5a2.6,2.6,0,0,1-1.26,2.93l-.35.22a2.72,2.72,0,0,1-.38,1.87,3.21,3.21,0,0,1-.07,3.53c1.67.73,2.64,2.84,1,4.39a10.6,10.6,0,0,1-2.82,1.79,2.67,2.67,0,0,1-.08.48,2.52,2.52,0,0,1,.81,1.94c0,.41,0,.82,0,1.23l.34,0c44.1,15.43,54.57-23.7,54.57-23.7C440.26,878,442.46,846.05,442.46,846.05Z" transform="translate(-221.8 -654)"/><path class="cls-1" d="M355.83,848.25c1.1-1.1,35,18.19,35,18.19a14.23,14.23,0,0,1,8.32,3.47,2.59,2.59,0,0,0-.47,1.67,32.82,32.82,0,0,0,.8,5.51,2.77,2.77,0,0,0-1.19,2.68c-.95,0-1.89,0-2.81.13a2.77,2.77,0,0,0-2.62,3.06,2.66,2.66,0,0,0,1.54,3.22,2.54,2.54,0,0,0-.73,1.48,3.07,3.07,0,0,0-.44,3.68,2.61,2.61,0,0,0,.87,3.82c1,.53,2.09,1,3.16,1.43-2.82-.44-4.81,3.39-2.13,5a2.59,2.59,0,0,0,1.25,2.92c.11.08.23.15.35.22a2.68,2.68,0,0,0,.37,1.88,3.23,3.23,0,0,0,.07,3.53c-1.65.72-2.62,2.83-1,4.38a10.27,10.27,0,0,0,2.8,1.8,3.54,3.54,0,0,0,.07.47,2.57,2.57,0,0,0-.8,2c0,.41,0,.81,0,1.22l-.34,0c-43.74,15.44-54.12-23.7-54.12-23.7C358,880.22,355.83,848.25,355.83,848.25Z" transform="translate(-221.8 -654)"/><path class="cls-1" d="M338.85,875.81s5.51,22.05,15.43,23.7,8.27-14.88,8.27-14.88l-.56-8.82-6.41-8.52-.2-5.81L338.85,867l-.56,9.37Z" transform="translate(-221.8 -654)"/></g><g id="neck_shadow" data-name="neck shadow"><polygon class="cls-2" points="176.02 246.06 178.77 246.06 178.22 252.68 177.12 257.09 176.57 257.2 176.02 257.09 176.02 246.06"/><path class="cls-2" d="M444.14,870.21a158.17,158.17,0,0,1-2.5-15.62c0-6.77-38.86,17-43.15,19.6a2.71,2.71,0,0,1,0,.76c-.09.91-.19,1.82-.28,2.73a2.53,2.53,0,0,1,2.86,2.63,59.24,59.24,0,0,1-1,10.62c-.55,3.68-.84,7.39-1.34,11.08v0h0c0,.24-.06.49-.1.73a2.38,2.38,0,0,1-.44,1.1,4.83,4.83,0,0,1,.24,2.9.88.88,0,0,1,0,.16,5.21,5.21,0,0,1-.33,2.06s0,.09-.05.13a2.74,2.74,0,0,1,.15,2l12,5.22C414.08,918,424,906.4,424,906.4c-5-2.2-3.31-13.78-3.31-13.78C426.2,886,444.14,870.21,444.14,870.21Z" transform="translate(-221.8 -654)"/><path class="cls-3" d="M440.81,854.32c-4.11-1-37.89,19.48-42.47,22.28,0,.36-.08.72-.11,1.08a2.53,2.53,0,0,1,2.86,2.63,59.24,59.24,0,0,1-1,10.62c-.48,3.21-.77,6.45-1.17,9.67,9.26-2,8.3-4.4,8.3-4.4,5.51-12.12,33.07-25.9,33.07-25.9C443.57,867.54,440.81,854.32,440.81,854.32Z" transform="translate(-221.8 -654)"/><path class="cls-4" d="M422.35,871.68c-2.59,2.07-21.64,4.62-24,4.93,0,.35-.08.71-.11,1.07a2.49,2.49,0,0,1,2.51,1.26c11,.38,21.61-6.16,21.61-6.16,4.29-2.39,15.21-14.7,18-17.95C437,858.35,422.35,871.68,422.35,871.68Z" transform="translate(-221.8 -654)"/><path class="cls-4" d="M400.58,879.12h-2.76v-2.21l5-.55,1.65,1.11S402.23,879.12,400.58,879.12Z" transform="translate(-221.8 -654)"/><polygon class="cls-3" points="176.02 224.57 185.39 224.57 184.84 229.53 178.77 245.51 177.12 246.61 176.02 246.61 176.02 224.57"/><polygon class="cls-2" points="177.14 245.16 174.39 245.16 174.94 252.14 176.04 256.79 176.59 256.91 177.14 256.79 177.14 245.16"/><path class="cls-2" d="M352.63,867.66c1.35-5.61,2.5-16.48,2.5-16.48,0-7.14,38.85,17.89,43.15,20.68a3,3,0,0,0,0,.8c.09,1,.18,1.92.28,2.88a2.59,2.59,0,0,0-2.86,2.78,66,66,0,0,0,1,11.21c.55,3.88.83,7.79,1.34,11.68v0h0l.09.78a2.6,2.6,0,0,0,.45,1.15,5.37,5.37,0,0,0-.24,3.06l0,.17a5.52,5.52,0,0,0,.34,2.17c0,.05,0,.1,0,.15a3,3,0,0,0-.14,2.09l-12,5.51c-3.85,1.75-13.77-10.46-13.77-10.46,5-2.33,3.3-14.54,3.3-14.54C370.56,884.33,352.63,867.66,352.63,867.66Z" transform="translate(-221.8 -654)"/><path class="cls-3" d="M356,851.44c4.1-1.08,37.89,20.56,42.47,23.51,0,.38.07.76.11,1.14a2.59,2.59,0,0,0-2.86,2.78,65.93,65.93,0,0,0,1,11.21c.48,3.38.76,6.8,1.16,10.2-9.25-2.12-8.29-4.64-8.29-4.64-5.52-12.79-33.07-27.33-33.07-27.33C353.2,865.4,356,851.44,356,851.44Z" transform="translate(-221.8 -654)"/><path class="cls-4" d="M396.19,877.06H399v-2.33l-5-.58-1.66,1.17S394.54,877.06,396.19,877.06Z" transform="translate(-221.8 -654)"/><polygon class="cls-3" points="177.14 223.03 167.77 223.03 168.32 228.26 174.39 245.13 176.04 246.29 177.14 246.29 177.14 223.03"/><path class="cls-4" d="M399.13,878.57l-9-1.1s-18.74-7.72-22-11.58c0,0-8.82-8.82-9.37-12.68s32.61,17.32,32.61,17.32S407.61,874.71,399.13,878.57Z" transform="translate(-221.8 -654)"/><path class="cls-3" d="M389.55,895.65s7.17,10.48,17.09,1.66S395.06,889,395.06,889Z" transform="translate(-221.8 -654)"/></g><g id="Tshirt"><path class="cls-5" d="M401.21,912.21a19.38,19.38,0,0,1-3.14,0l-.25,15.37,9.37-2.2,5-8.27Z" transform="translate(-221.8 -654)"/><path class="cls-5" d="M398.14,912.26l-.32,0,0,49.56h17.87Z" transform="translate(-221.8 -654)"/><path class="cls-5" d="M485.73,914.67c.55-6.62-33.07-30.87-33.07-30.87-.59,2.78-2.9,6.2-5.61,9.44a107.74,107.74,0,0,1-10.92,11c-8.12,5.74-20.56,6.92-29,7a2.76,2.76,0,0,1-1.12.22l-.32,0a22.64,22.64,0,0,1-8.21.82c.05.29.09.57.13.85a2.37,2.37,0,0,1,.83,1.2,2.49,2.49,0,0,1,1.24,2.26,26.66,26.66,0,0,1-.37,5c0,.05,0,.09,0,.14a26.28,26.28,0,0,1-.4,4.86,23.62,23.62,0,0,1-.54,3.35,2.35,2.35,0,0,1-.27.67c-.18.85-.36,1.7-.53,2.54a2.86,2.86,0,0,1,.48,1.49c.09,1.69.13,3.38.14,5.07a3.07,3.07,0,0,1,.7,1.75c.11,1.31.19,2.61.23,3.92a3,3,0,0,1,1.16,2.07c.45,3.4.39,6.81.69,10.21.14,1.63.31,3.3-.62,4.44,0,1.38,0,2.75-.13,4.13,6.06-.09,12.15.3,18.2.45,12.63.31,25.25.63,37.86,1.27a2.83,2.83,0,0,1,1.66.58c3.24.13,6.48.3,9.72.53l.3,0c3.74-.43,7.49-.76,11.25-1a2.34,2.34,0,0,1,.26,0l1.62-.1c3.89-.29,7.79-.54,11.69-.82C493.79,946.57,485.24,920.51,485.73,914.67Z" transform="translate(-221.8 -654)"/><path class="cls-6" d="M473.6,923.49c-5.51-9.37-2.2-11.58-7.71-18.19s-9.92-15.43-10.47-13.23S442.19,910.81,427.31,913s-19.29,0-23.7,2.75c-1.81,1.13-3.06,1.25-3.92,1a24.87,24.87,0,0,1-.37,4.8c0,.05,0,.09,0,.14a26.28,26.28,0,0,1-.4,4.86,23.62,23.62,0,0,1-.54,3.35,2.6,2.6,0,0,1-.26.66l0,5.59s19.84,6.07,18.74,13.23,5,11.58,6.61,12.13,38,0,38,0h9.92S479.12,932.86,473.6,923.49Z" transform="translate(-221.8 -654)"/><path class="cls-7" d="M452.39,886.56l-4.7,5S437,903.65,432.54,905.3c0,0-6.84,4.4-21.88,5.23l-2.35,0-.46.15a2.55,2.55,0,0,1-1.83.69l-.32,0a22.86,22.86,0,0,1-7.92.85l0,.94a2.36,2.36,0,0,1,.67,1.07,2.49,2.49,0,0,1,1.26,2.27,26.66,26.66,0,0,1-.37,5c0,.05,0,.09,0,.13a24.23,24.23,0,0,1-.27,4c7.77-1.52,44-9.06,45.93-17.91,0,0,9.93-14.88,12.68-15.43Z" transform="translate(-221.8 -654)"/><path class="cls-8" d="M440.54,962.07s11-35.83,5.51-68.35l1.29-.53s7.53,20.93-5.15,68.33Z" transform="translate(-221.8 -654)"/><path class="cls-7" d="M397.82,912.23V926a16.63,16.63,0,0,0,10.47-3.31l-7.14-10.44A20.58,20.58,0,0,1,397.82,912.23Z" transform="translate(-221.8 -654)"/><path class="cls-5" d="M397,912.14l-13.54,6.11,5,8.27,9.37,2.2-.27-16.51Z" transform="translate(-221.8 -654)"/><polygon class="cls-5" points="176.02 258.46 175.97 308.89 158.1 308.89 176.02 258.46"/><path class="cls-5" d="M397.19,915.35a2.37,2.37,0,0,1,.83-1.2l.24-1.57-.37-.34c-.54,0-1.08-.12-1.61-.21-5.22.41-25.32,1.37-36.77-6.73a105.87,105.87,0,0,1-10.91-11c-2.72-3.24-5-6.66-5.62-9.43,0,0-33.62,24.25-33.07,30.86.49,5.84-8.06,31.9-7,52.33l11.69.82,1.62.1.26,0c3.76.29,7.51.62,11.25,1.05l.3,0q4.86-.35,9.72-.52a2.9,2.9,0,0,1,1.66-.59c12.61-.63,25.23-1,37.86-1.27,6.05-.15,12.14-.54,18.2-.45-.1-1.37-.13-2.75-.13-4.13-.93-1.14-.76-2.8-.62-4.44.3-3.4.24-6.8.69-10.21a3,3,0,0,1,1.16-2.07c0-1.31.12-2.61.23-3.91a3,3,0,0,1,.7-1.75c0-1.7,0-3.39.14-5.08a2.8,2.8,0,0,1,.48-1.48c-.17-.85-.35-1.7-.53-2.54a2.48,2.48,0,0,1-.27-.67,24.08,24.08,0,0,1-.54-3.35,26.46,26.46,0,0,1-.4-4.87s0-.09,0-.14a26.66,26.66,0,0,1-.37-5A2.49,2.49,0,0,1,397.19,915.35Z" transform="translate(-221.8 -654)"/><path class="cls-6" d="M322,924.59c5.51-9.37,2.2-11.57,7.71-18.19s9.92-15.43,10.47-13.23,13.23,18.74,28.11,21,19.29,0,23.7,2.75c1.81,1.13,3.06,1.25,3.92,1a25.65,25.65,0,0,0,.37,4.79c0,.05,0,.09,0,.14a26.46,26.46,0,0,0,.4,4.87,24.08,24.08,0,0,0,.54,3.35,2.68,2.68,0,0,0,.26.65l0,5.6s-19.84,6.06-18.73,13.22-5,11.58-6.62,12.13-38,0-38,0h-9.92S316.52,934,322,924.59Z" transform="translate(-221.8 -654)"/><path class="cls-7" d="M394.29,911.51c-3.8.25-9.31.12-9.31.12-15-.83-21.88-5.23-21.88-5.23-4.41-1.65-15.15-13.71-15.15-13.71l-4.69-5L338,893.45c2.76.55,12.68,15.43,12.68,15.43,2,8.85,38.16,16.39,45.93,17.91a24.23,24.23,0,0,1-.27-4s0-.08,0-.13a26.66,26.66,0,0,1-.37-5,2.49,2.49,0,0,1,1.26-2.27,2.42,2.42,0,0,1,.67-1.07l0-2A14.82,14.82,0,0,1,394.29,911.51Z" transform="translate(-221.8 -654)"/><path class="cls-8" d="M355.11,963.17s-11-35.82-5.52-68.34l-1.29-.54s-7.52,20.93,5.15,68.33Z" transform="translate(-221.8 -654)"/><path class="cls-7" d="M398.86,912.12,396,913.2l-8.67,9.68A25,25,0,0,0,400,925.94V912.22C399.63,912.2,399.24,912.16,398.86,912.12Z" transform="translate(-221.8 -654)"/></g><g id="Layer_18" data-name="Layer 18"><path class="cls-9" d="M560.87,962.05c0-.35-.1-.7-.12-1H222.32a6.29,6.29,0,0,1-.45,1.11C221.5,966.57,221.79,983,246,983H536.8c23,0,24.41-14.86,24.18-20.15A4.28,4.28,0,0,1,560.87,962.05Z" transform="translate(-221.8 -654)"/></g><g id="Layer_19" data-name="Layer 19"><path class="cls-5" d="M332.69,960.91S338,972,354,974h0V961l-21.31-.09" transform="translate(-221.8 -654)"/><path class="cls-5" d="M307.69,907.91S313,919,329,921h0V908l-21.31-.09" transform="translate(-221.8 -654)"/><path class="cls-5" d="M468.11,960.91S462.81,972,446.81,974h0V961l21.3-.09" transform="translate(-221.8 -654)"/><rect class="cls-5" x="132.2" y="307" width="93" height="13"/><path class="cls-8" d="M353,961s4,13,5,13h1s-4.08-10-4.54-13L353,960Z" transform="translate(-221.8 -654)"/><path class="cls-8" d="M440.84,961S438,970,436,974h1s5.74-12,5.37-13S440.84,961,440.84,961Z" transform="translate(-221.8 -654)"/></g><g id="Layer_20" data-name="Layer 20"><path class="cls-10" d="M516,961l-2.61,12.9s-1.56,7.53,1.57-12.9Z" transform="translate(-221.8 -654)"/><path class="cls-10" d="M282,961l4.13,12s2.48,7-2.48-12Z" transform="translate(-221.8 -654)"/></g><g id="blue_shirt" data-name="blue shirt"><polygon class="cls-11" points="65.2 320 91.2 320 97.2 311 96.54 305.91 91.2 302 74.2 302 66.2 306 62.2 307 63.2 310 65.2 320"/><polygon class="cls-11" points="258.87 306.53 262.2 317 291.2 321 293.2 308 289.2 305 262.2 303 258.87 306.53"/><path class="cls-12" d="M233.92,939.14s-9.72,16-11.92,22.65H332.78s-1.37-7.44-3.58-21.77l-81.57,2.21Z" transform="translate(-221.8 -654)"/><path class="cls-9" d="M254.63,940.46s-23.13,18.25-24.85,21.44l103-.11-1.91-11.1S253.37,943.65,254.63,940.46Z" transform="translate(-221.8 -654)"/><path class="cls-12" d="M560.84,961.79a6.88,6.88,0,0,1-.1-.9c0-.14,0-.27,0-.41a5.31,5.31,0,0,1-.11-.8c-8-18.66-22.83-31-22.83-31-6.39-6.39-45.22-27.72-47.81-29.13l-.14-.08c-7.16-9.37-47.4-39.68-47.4-39.68l2.09,13.74a3,3,0,0,1,.33,1.31,2.4,2.4,0,0,1,0,.28,2.68,2.68,0,0,1,.1.69v.37l.27,1.8c0,2.75,18.74,29.21,18.74,29.21,5.51,13.78,3.86,23.7,3.86,23.7,4.41,15.43,0,30.86,0,30.86Z" transform="translate(-221.8 -654)"/><path class="cls-11" d="M469.47,918.8l11.58,43h34.17A42.48,42.48,0,0,0,513,946.36h0S472.78,917.15,469.47,918.8Z" transform="translate(-221.8 -654)"/><path class="cls-9" d="M507.14,940.55l9.2,21.2,42.42.41s-35.27-29.77-49.58-34.25C509.18,927.91,488.23,922.2,507.14,940.55Z" transform="translate(-221.8 -654)"/><path class="cls-13" d="M330.63,949.2l2.15,12.59-17.63-1.1s1.61-12.44,2.73-14.49S329.57,944.87,330.63,949.2Z" transform="translate(-221.8 -654)"/><path class="cls-10" d="M512.79,943.52s6.56-.19,5.46-10.11c0,0-1.1-6.62-6.06-8.27,0,0-9.92-2.2-12.68,3.31l-.51.31-.59-.86s.55-2.76,7.16-4.41c0,0,9.37-1.11,12.13,5.51,0,0,5.85,12.38-4.79,14.73" transform="translate(-221.8 -654)"/><path class="cls-10" d="M489.86,899.51s23.37,23,25.19,26.36C515.05,925.87,501.44,908.33,489.86,899.51Z" transform="translate(-221.8 -654)"/><path class="cls-14" d="M503.53,925.42s8.06,10.58,9.19,17.82c0,0,5.16,1.26,5.62-8.7C518.34,934.54,518.57,920.74,503.53,925.42Z" transform="translate(-221.8 -654)"/><path class="cls-13" d="M445,876.62s1.32,4.64,2.29,5.64c0,0,14.67,23.09,16.92,25,0,0,11.62,18.44,11.07,26.71l39.13,19.29-3.31-12.68-5-3.86-38.58-38.58-22-22Z" transform="translate(-221.8 -654)"/><path class="cls-15" d="M498.41,927.9l-53.47-53.47.56-2.2S490.14,914.67,498.41,927.9Z" transform="translate(-221.8 -654)"/><path class="cls-13" d="M477.46,935.06s36.25,19.13,37.42,21.69l-.49-3S481.87,936.16,477.46,935.06Z" transform="translate(-221.8 -654)"/><path class="cls-13" d="M464.79,908.05s8.28,12.46,7.64,17.05c0,0,2.55,3.94,2.55,6.56,0,0,4.46,19,3.82,21.64,0,0,6.62,14.44,6.18,18.7l-16.37-.33s4.46-22.3,0-36.73C468.61,934.94,468.61,915.92,464.79,908.05Z" transform="translate(-221.8 -654)"/><path class="cls-16" d="M470.3,918.53s4.41,25.56,3.3,34.31c0,0-1.1,18.16-.55,18.16h8.82s-6.06-10.76-6.06-16.15C475.81,954.85,474.16,932.65,470.3,918.53Z" transform="translate(-221.8 -654)"/><path class="cls-10" d="M516,961.52s0-12.13-5-21.5c0,0-8.81-8.27-11-10.47,0,0-51.19-51.76-55.08-55.37l-.19.05a2.48,2.48,0,0,1,.09.65,2.4,2.4,0,0,1,0,.28,2.68,2.68,0,0,1,.1.69v.24l53.46,53.46s6.06,7.16,11.57,11c0,0,6.28,16,5.07,21.23Z" transform="translate(-221.8 -654)"/><path class="cls-13" d="M463.32,906.31s4,8.81,4.25,13.68l3-10.56Z" transform="translate(-221.8 -654)"/><path class="cls-16" d="M503.92,912.46s34.17,13.23,44.09,33.62C548,946.08,538.64,923.49,503.92,912.46Z" transform="translate(-221.8 -654)"/><path class="cls-12" d="M227,951.87c8.4-19.84,25.79-33.07,25.79-33.07,6.95-6.39,49.2-27.72,52-29.13l.14-.08c7.8-9.37,51.57-39.68,51.57-39.68l-2.26,13.74a2.75,2.75,0,0,0-.36,1.31,2.66,2.66,0,0,0,0,.28,2.31,2.31,0,0,0-.11.69v.37l-.3,1.8c0,2.75-20.38,29.21-20.38,29.21-6,13.78-4.2,23.7-4.2,23.7-4.8,15.43,0,30.86,0,30.86Z" transform="translate(-221.8 -654)"/><path class="cls-11" d="M329.48,908.9,317.9,961.79H283.73a63.88,63.88,0,0,1,2.2-19h0S326.17,906.86,329.48,908.9Z" transform="translate(-221.8 -654)"/><path class="cls-9" d="M291.81,930.63l-9.2,21.2-42.42.41s35.26-29.77,49.57-34.25C289.76,918,310.72,912.28,291.81,930.63Z" transform="translate(-221.8 -654)"/><path class="cls-10" d="M285.56,933.59s-6.84-.2-5.69-10.49c0,0,1.15-6.86,6.32-8.57,0,0,10.33-2.29,13.2,3.43l.53.32.62-.9s-.57-2.85-7.46-4.57c0,0-9.77-1.14-12.64,5.72,0,0-6.1,12.84,5,15.28" transform="translate(-221.8 -654)"/><path class="cls-10" d="M304.91,889.85s-22.82,23.5-24.56,26.94C280.35,916.79,293.55,898.94,304.91,889.85Z" transform="translate(-221.8 -654)"/><path class="cls-14" d="M295.86,914.83s-9,10.83-10.26,18.25c0,0-5.76,1.28-6.28-8.91C279.32,924.17,279.07,910,295.86,914.83Z" transform="translate(-221.8 -654)"/><path class="cls-13" d="M354,866.7s-1.32,4.64-2.3,5.64c0,0-14.67,23.08-16.91,25,0,0-11.62,18.44-11.07,26.71l-39.13,19.29,3.3-12.68,5-3.86,38.59-38.58,22-22Z" transform="translate(-221.8 -654)"/><path class="cls-15" d="M300.54,918,354,864.51l-.55-2.2S308.81,904.75,300.54,918Z" transform="translate(-221.8 -654)"/><path class="cls-13" d="M321.48,925.14s-36.24,19.13-37.41,21.69l.49-3S317.08,926.24,321.48,925.14Z" transform="translate(-221.8 -654)"/><path class="cls-13" d="M334.16,898.13s-7.16,10.69-6.61,14.63c0,0-2.21,3.38-2.21,5.63,0,0-3.86,16.32-3.3,18.57,0,0-5.74,12.39-5.35,16l14.16-.29s-3.85-19.13,0-31.51C330.85,921.2,330.85,904.89,334.16,898.13Z" transform="translate(-221.8 -654)"/><path class="cls-16" d="M328.65,908.61s-4.41,25-3.31,33.6c0,0,1.1,17.79.55,17.79h-8.81s6.06-10.54,6.06-15.81C323.14,944.19,324.79,922.44,328.65,908.61Z" transform="translate(-221.8 -654)"/><path class="cls-10" d="M282.9,951.6s0-12.13,5-21.5c0,0,8.82-8.27,11-10.47,0,0,51.19-51.76,55.08-55.37l.19,0a2.48,2.48,0,0,0-.09.65,2,2,0,0,1-.07,1v.24l-53.46,53.46s-6.06,7.16-11.57,11c0,0-6.28,16-5.07,21.23Z" transform="translate(-221.8 -654)"/><path class="cls-13" d="M335.63,896.39s-4,8.81-4.25,13.68l-3-10.56Z" transform="translate(-221.8 -654)"/><path class="cls-16" d="M276.21,907.67s-31.23,19.16-37.32,41C238.89,948.67,244,924.76,276.21,907.67Z" transform="translate(-221.8 -654)"/><path class="cls-10" d="M283.73,951.87s-.55,8.82,0,9.92h-1.35s.24-8.65.52-10.39Z" transform="translate(-221.8 -654)"/><path class="cls-16" d="M320.08,948.87S310.74,974,310.19,974h17.08s-.55-15.72-1.65-25.89S320.08,948.87,320.08,948.87Z" transform="translate(-221.8 -654)"/></g><g id="face_skin" data-name="face skin"><path class="cls-1" d="M477.46,764.75c-3.86,0-8.82,3.86-8.82,3.86-.55,0,.56-7.72.56-7.72l-4.41-8.81a233.59,233.59,0,0,0-12.13-54c-12.85-14.91-49.67-3.44-54.57-1.83a11.5,11.5,0,0,1,0,2.42c-.08.67-.09.75-.18,1.48a6.09,6.09,0,0,1-.18.89c0,1.49.21,3,.3,4.45l2.72,0c3.54.08,3.55,5.6,0,5.51h-.16c0,2.88-.39,5.83-.58,8.66-.25,3.86-.25,7.71-.48,11.56a2.63,2.63,0,0,1-1.51,2.42c-.22,1.13-.4,2.27-.53,3.41,0,.41.07.84.1,1.26a30.13,30.13,0,0,1,1,6,2.78,2.78,0,0,1,.73,1.75,24.49,24.49,0,0,1-.13,4c0,.13,0,.27,0,.41a32.88,32.88,0,0,1-.34,4.21c-.19,1.94-.43,3.88-.66,5.82a2.76,2.76,0,0,1,1.73,3.19c-.16.81-.36,1.62-.58,2.42a32.37,32.37,0,0,1-.08,7.23c-.1,1.21-.19,2.43-.28,3.65a101.39,101.39,0,0,1-.25,10.73c-.05.9-.14,1.83-.23,2.77a2.73,2.73,0,0,1,2.64,2.68A72.07,72.07,0,0,1,399.61,806c-.09,1.33-.22,2.65-.39,4,0,.84,0,1.68,0,2.53,0,3.56.31,7.09-.29,10.63a2.27,2.27,0,0,1-.64,1.25c-.13,1.43-.29,2.86-.45,4.29,0,.48.06,1,.08,1.44a3.19,3.19,0,0,1,.2.78c.22,1.72.33,3.45.48,5.17a2.52,2.52,0,0,1,1,1.54,12.18,12.18,0,0,1-.14,6.2,2.64,2.64,0,0,1-.87,1.31,10.39,10.39,0,0,1-.34,3.18,3.1,3.1,0,0,1,.12.77c.05,1.59,0,3.2,0,4.81a34,34,0,0,1,0,7.54v0h0c0,.24-.05.49-.09.73a2.45,2.45,0,0,1-.48,1.18c0,.46.05.91.07,1.36a2.41,2.41,0,0,1,.76,1.43,14.77,14.77,0,0,1,.21,1.71,2.62,2.62,0,0,1,.38,1.5,2.36,2.36,0,0,1,.55,1.84c-.13,1.56-.34,3.11-.48,4.66a3.16,3.16,0,0,1,.3.85c11.17.18,16.08-2.27,16.08-2.27,10.47-1.1,35.28-32,35.28-32,8.26-13.23,8.82-28.11,8.82-28.11,6.06,0,8.26-1.66,8.26-1.66,2.76-1.65,2.21-7.71,2.21-7.71a34,34,0,0,0,3.86-6.62,57.86,57.86,0,0,0,1.1-7.16c2.75-2.76,6.06-15.43,6.06-15.43C483,763.65,477.46,764.75,477.46,764.75Z" transform="translate(-221.8 -654)"/><polyline class="cls-1" points="176.02 172.76 177.67 172.76 178.77 170 180.43 105.52 176.02 100.56 176.02 173.31"/><path class="cls-1" d="M397.81,860v16.9s5,0,6.06-.55L397.81,860" transform="translate(-221.8 -654)"/><path class="cls-1" d="M397.82,876.91s-7.72,0-8.82-.55c0,0-19.84-7.71-24.25-15.43,0,0-16-18.74-17.09-23.15,0,0-5-14.88-5-20.94,0,0-5,.55-6.61-3.86,0,0-1.1-8.27-.55-9.37,0,0-3.31-5-2.21-13.78a15.17,15.17,0,0,1-3.85-8.27s-2.21-9.92,1.65-13.22c0,0,2.2-.56,3.31,0,0,0,2.2,1.65,2.2,2.75l5-52.36,9.92-9.37,12.13-7.16,25.9-11.58,8.27-7.16Z" transform="translate(-221.8 -654)"/></g><g id="shadows"><path class="cls-17" d="M333.77,777s-.19,9-.61,10.77c0,0,2.73-8.92,3.9-11.24a2.18,2.18,0,0,1,.29-.48C338.26,775,334.82,775.39,333.77,777Z" transform="translate(-221.8 -654)"/><path class="cls-2" d="M383.25,836.66c-10.46-6.08-16.06-7.71-16.06-7.71l-.06-.06-.31.13h0l.23.27c6.14,7.19,16.6,21.15,16.6,21.15,0,6.08,14.19,11.56,14.19,11.56l5.56-12.54Z" transform="translate(-221.8 -654)"/><path class="cls-2" d="M430.29,840.55s5.56-3.87,6.66-8.83c0,0-1.65-6.62-6.61-4.41,0,0-19.29,7.16-9.37,10.47Z" transform="translate(-221.8 -654)"/><path class="cls-2" d="M464,778.24c.17-3.48-15.56,11-28.24,16.22,0,0-20.74-3.48-22.47,1.74,0,0,23.63,15.06,25.36,27.8,0,0,17.86-1.16,21.31-17.38C459.92,806.62,462.81,801.41,464,778.24Z" transform="translate(-221.8 -654)"/><path class="cls-2" d="M397.82,769.44s20.39-7.17,36.38-15.43c0,0,15.43.55.55-35.28s1.65-20.39-20.95-20.39l-16,1.65v70" transform="translate(-221.8 -654)"/><path class="cls-18" d="M432.72,715.54s10.12,28.1,7.63,33c0,0,7.82,30.15,13.17,28,0,0,9.94-7.28,10.69-16.19C464.21,760.39,458.54,709.69,432.72,715.54Z" transform="translate(-221.8 -654)"/><path class="cls-2" d="M397.82,822.9a2.14,2.14,0,0,0,2.76,0s9.92-11.57,14.88-9.37c0,0,7.71-2.76,2.75-5l-20.39.55v13.23" transform="translate(-221.8 -654)"/><path class="cls-2" d="M397.82,862s13.78,1.11,16-7.16c0,0,13.78-12.68,21.5-18.74s0-.55,0-.55-5.23-1.16-16.12.8l-21.36,5.26Z" transform="translate(-221.8 -654)"/><path class="cls-18" d="M397.82,854.32s8.82-.55,13.78-6.07c0,0,6.61-11,9.92-12.67l-23.7,7.71Z" transform="translate(-221.8 -654)"/><path class="cls-17" d="M439.68,824.24l.58-1.34S437.74,826.44,439.68,824.24Z" transform="translate(-221.8 -654)"/><path class="cls-17" d="M440,823.92l-.28.32c-3.05,7.06-17.18,39.86-18.16,43.3,0,0-3.31,3.31-5,3.86,0,0-12.46-2.22-17.39-.67a.88.88,0,0,1,0,.16c0,1.43-.24,2.85-.33,4.28a2.53,2.53,0,0,1,.8,1.4c3.9.34,13.5.5,22.45-4.62,0,0,22.6-18.18,29.76-30.86A47.64,47.64,0,0,0,459,821.8a39.21,39.21,0,0,0,1.1-7.72S442.42,821.07,440,823.92Z" transform="translate(-221.8 -654)"/><path class="cls-17" d="M455.14,818.49s-3.31-5.51,5-4.41l-2.2,5.51Z" transform="translate(-221.8 -654)"/><path class="cls-17" d="M467.82,776.6s7.71-9.37,9.92-7.71c0,0-.55-6.07-8.82-1.11C468.92,767.78,466.16,773.3,467.82,776.6Z" transform="translate(-221.8 -654)"/><path class="cls-17" d="M458.45,810.22s8.82,6.62,11-3.3c0,0,.55,2.75.55,3.3,0,0-1.65,5-8.82,3.86C461.2,814.08,450.18,819,458.45,810.22Z" transform="translate(-221.8 -654)"/><path class="cls-17" d="M473.33,775s1.65,8.27,1.65,9.92c0,0,.46-8.71,1-11.08a2.88,2.88,0,0,1,.14-.49C476.64,772.19,473.88,773.3,473.33,775Z" transform="translate(-221.8 -654)"/><path class="cls-2" d="M466.72,781.56s1.1-1.1,2.2,1.11v12.12s-.55,0-3.31,2.21-4.41.55-4.41,3.3C461.2,800.3,465.06,781.56,466.72,781.56Z" transform="translate(-221.8 -654)"/><path class="cls-2" d="M464.51,800.85s-2.2,3.86,1.65,3.86l-3.3,1.1v-2.75S461.75,800.3,464.51,800.85Z" transform="translate(-221.8 -654)"/><path class="cls-19" d="M337.74,766.68l.17.21c1.75,2.2,17.08,21.35,28.49,31.21,12.13,10.47,3.86,28.66.56,44.09s22.59,25.35,22.59,25.35l9.37,3.31.55,5.51a43,43,0,0,1-9.37,0s-6.89-2.48-8-3.58c0,0-12.67-6.06-15.43-9.92,0,0-17.64-20.94-18.19-23.7,0,0-5-13.78-5.51-22.6C343,816.56,334.71,770.26,337.74,766.68Z" transform="translate(-221.8 -654)"/><path class="cls-18" d="M397.82,853.77S389,853.21,384,847.7c0,0-6.61-11-9.92-12.67l23.7,7.71Z" transform="translate(-221.8 -654)"/><path class="cls-20" d="M338.29,774.4s12.13,45.19,12.68,57.32a25.51,25.51,0,0,0,13.23,21.49c5,2.76,5,12.13,5,12.13s-3.86-3.31-4.41-4.41c0,0-15.43-19.29-16-20.94h0s-5.51-13.78-6.07-23.7C342.7,816.29,336.09,778.26,338.29,774.4Z" transform="translate(-221.8 -654)"/><path class="cls-2" d="M398.37,768.34S378,761.17,362,752.9c0,0-15.43.55-.55-35.27s-1.65-20.39,20.95-20.39l16,1.65v70" transform="translate(-221.8 -654)"/><path class="cls-20" d="M361.38,712.2s-9.63,36-8.31,42.82c0,0-8.18,39-11.78,35.5,0,0-6.37-10.92-6.12-22.83C335.17,767.69,343.66,701.17,361.38,712.2Z" transform="translate(-221.8 -654)"/><path class="cls-18" d="M372.63,712s-8.58,27.26-7,32.35c0,0-7,29.46-10.77,27,0,0-6.75-8-6.86-17C348,754.38,354.45,704.25,372.63,712Z" transform="translate(-221.8 -654)"/><path class="cls-21" d="M335,775.5s-3.86-3.86-3.86-4.41c0,0-3.31,9.92,2.2,16.54,0,0,.28-6.89,1.38-8.55A12.57,12.57,0,0,0,335,775.5Z" transform="translate(-221.8 -654)"/><path class="cls-21" d="M335.26,801.13s2.76,2.76,2.76,5.51c0,0,.55-3.86-.55-5.51C337.47,801.13,335.81,800.58,335.26,801.13Z" transform="translate(-221.8 -654)"/><path class="cls-21" d="M335.81,784.59s-2.2,8.82.56,11.58,0-3.31,0-3.31Z" transform="translate(-221.8 -654)"/><path class="cls-17" d="M330.58,771.09a61.51,61.51,0,0,1,5,5.51c1.1,1.66.55-2.75.55-2.75S331.68,768.89,330.58,771.09Z" transform="translate(-221.8 -654)"/></g><g id="Hair"><path class="cls-22" d="M372.47,670.23s-14.22-3.9-31.09,27.81,37.7-17.89,37.7-17.89Z" transform="translate(-221.8 -654)"/><path class="cls-22" d="M409.67,662.24s25.05,1,30.58,8.91l-2.75,9.55-35.82-6.06S404.43,662,409.67,662.24Z" transform="translate(-221.8 -654)"/><path class="cls-23" d="M470.3,767l1.87-.58S472,751,471.4,746.56s1.65-12.67,0-17.08a26.8,26.8,0,0,1-3.31-8.82c-1.1-5.51,1.11-7.72-1.1-13.78s-1.1-13.23-2.2-14.88,5-5.51,3.85-8.27-2.2-1.1-6.61-2.75,0-8.82-1.65-9.92-3.86-2.21-10.48-3.31S448.8,665,440,669.4s-8.81,3.31-14.88.55-.55-8.82-2.2-8.82-4.41,3.31-10.47,5.52-3.31-2.21-2.21-6.07-8.27-2.2-11.57,2.76a15.82,15.82,0,0,0-.89,1.52,5.54,5.54,0,0,1,1,1.31c.37.68.65,2.82,1.26,3.18a2.89,2.89,0,0,1,1.27,3.11c0,.32-.1.64-.16,1a2.3,2.3,0,0,1,.53,1.65c-.06.71-.16,1.4-.27,2.1a3.34,3.34,0,0,1,0,1.41c-.23,1.1-.58,2.18-.89,3.26a2.9,2.9,0,0,1,1.68,2.56,17.24,17.24,0,0,1-.69,4.21,3.2,3.2,0,0,1-.1.84c-.3,1-.6,2-.84,3a2.86,2.86,0,0,1-.28,1.5c-.24.51-.47,1-.68,1.5a2.3,2.3,0,0,1,0,2.68,24,24,0,0,1-1.68,2,5.51,5.51,0,0,1-.27,1.08c.14,0,.29.07.45.09,3.85.55,14.33-.55,28.66,3.86,0,0,18.74-2.21,23.14,17.63,0,0,3.31,15.44,6.62,20.4,0,0,7.16,9.37,6.61,17.63,0,0,2.21,23.7-1.1,31.42,0,0-1.1,5.51,0,6.06a12.83,12.83,0,0,0,5-11,45.76,45.76,0,0,0,.55-14.88s-.09-4.57,3.26-5.32S470.3,767,470.3,767Z" transform="translate(-221.8 -654)"/><path class="cls-23" d="M421.83,666.66s6.6-6.69,24.38,3.12C446.21,669.78,431.18,662.29,421.83,666.66Z" transform="translate(-221.8 -654)"/><path class="cls-23" d="M421.52,676.29s4.41-12.68,24.25-6.06C445.77,670.23,429.24,665.82,421.52,676.29Z" transform="translate(-221.8 -654)"/><path class="cls-23" d="M422.36,669.22s10.48-8.38,23.76,7.79C446.12,677,434.47,664.47,422.36,669.22Z" transform="translate(-221.8 -654)"/><path class="cls-23" d="M401.23,671c0,.1,0,.21,0,.31,13.42-9.79,40.63-5.53,40.63-5.53C413.48,660.26,403.64,668.33,401.23,671Z" transform="translate(-221.8 -654)"/><path class="cls-23" d="M462.85,705s12.18,5.64,3.62,24.73C466.47,729.77,472.5,713.76,462.85,705Z" transform="translate(-221.8 -654)"/><path class="cls-23" d="M401.68,665.27s4.41-4.79,24.25-2.29C425.93,663,409.39,661.31,401.68,665.27Z" transform="translate(-221.8 -654)"/><path class="cls-23" d="M398.51,665.8c.08.12.16.24.23.37a.36.36,0,0,1,0,.09c8.17-8.18,22.74-4.3,22.74-4.3C407.15,657.17,400.88,662.5,398.51,665.8Z" transform="translate(-221.8 -654)"/><path class="cls-23" d="M460.15,681.73s11.25,4.79,5.53,26.69C465.68,708.42,469.47,690.18,460.15,681.73Z" transform="translate(-221.8 -654)"/><path class="cls-23" d="M403.42,662.87s12-6,21.64,12.52C425.06,675.39,416.25,660.72,403.42,662.87Z" transform="translate(-221.8 -654)"/><path class="cls-23" d="M424.28,675.19s4.41-12.68,24.25-6.06C448.53,669.13,432,664.72,424.28,675.19Z" transform="translate(-221.8 -654)"/><path class="cls-23" d="M417.11,669.68s2.11-12.68,11.58-6.07C428.69,663.61,420.79,659.21,417.11,669.68Z" transform="translate(-221.8 -654)"/><path class="cls-23" d="M418,666s14.62-16.82,25.9,3.62C443.86,669.64,434.8,651.88,418,666Z" transform="translate(-221.8 -654)"/><path class="cls-23" d="M399.78,663.26s14.62-16.81,25.89,3.62C425.67,666.88,416.61,649.13,399.78,663.26Z" transform="translate(-221.8 -654)"/><path class="cls-23" d="M435.05,666.94s18-13.12,24.44,9.32C459.49,676.26,454.62,656.93,435.05,666.94Z" transform="translate(-221.8 -654)"/><path class="cls-23" d="M404.74,660.51s9.47-16.82,16.78,3.62C421.52,664.13,415.65,646.37,404.74,660.51Z" transform="translate(-221.8 -654)"/><path class="cls-23" d="M413.86,699.3s-13.35,12.78-11.29-8.4C402.57,690.9,400.42,709.16,413.86,699.3Z" transform="translate(-221.8 -654)"/><path class="cls-23" d="M448,707.92s-11.85,9-11.61-7.59C436.39,700.33,435.82,714.62,448,707.92Z" transform="translate(-221.8 -654)"/><path class="cls-23" d="M419.87,693.93s-8.27,11.57,2.2,12.12C422.07,706.05,412.7,705.5,419.87,693.93Z" transform="translate(-221.8 -654)"/><path class="cls-23" d="M429.24,700.54s2.75,8.27-2.76,7.72C426.48,708.26,432,709.91,429.24,700.54Z" transform="translate(-221.8 -654)"/><path class="cls-23" d="M423.8,701.44s1.15,6.72,3,4.1C426.81,705.54,425,706.93,423.8,701.44Z" transform="translate(-221.8 -654)"/><path class="cls-23" d="M411.05,703.85s2.75,0,6.61-2.76C417.66,701.09,413.25,703.85,411.05,703.85Z" transform="translate(-221.8 -654)"/><path class="cls-23" d="M398.16,700l-.17.18c.4,1,1.82,2.81,6.74,2.61C403.4,702.76,400,702.55,398.16,700Z" transform="translate(-221.8 -654)"/><path class="cls-23" d="M397.82,701.09V664.72l4.76-.06,5.71,4.47S402.78,702.75,397.82,701.09Z" transform="translate(-221.8 -654)"/><path class="cls-23" d="M400.85,667.75s-1.1.55-5-4.41-10.47-1.65-12.12-1.65-6.62,5.51-13.23,6.61-9.92,4.41-6.07,3.31,7.17-3.86.56,3.3,1.1,2.21-6.07,9.92-14.88,6.07-17.63,11-4.41,30.86-4.41,30.86a158.43,158.43,0,0,0-.55,21.5c-2.76,7.71,0,44.09,0,44.09,0,3.31,3.85,9.37,3.85,9.37-3.85-30.31.56-46.85.56-46.85l.21-.2a15.87,15.87,0,0,1,1.32-5.21,8.76,8.76,0,0,1,2.51-3c.83-2.07,1.55-4.19,2.32-6.29a41.09,41.09,0,0,1,1.39-5.85c0-.28,0-.43,0-.43a2.23,2.23,0,0,0,.24-.19,49.59,49.59,0,0,1,2.89-6.92,13.91,13.91,0,0,1,1.72-2.63,18.57,18.57,0,0,0,.11-2.94,6.92,6.92,0,0,1,2.88-.3,11.67,11.67,0,0,1,4.45-2.33c.74-1.93,3.31-4.27,5.9-7.29,3.31-3.86,7.16-2.76,6.06,1.65s-8.27,1.11-8.27,1.11c.56,5,12.68,2.75,16-.56s.55-7.16,1.65-9.36,15.43-3.31,15.43-3.31l4.13-3.2Z" transform="translate(-221.8 -654)"/><path class="cls-23" d="M394.51,698.34S394,711,379.63,704.4s3.86.55,8.27,0" transform="translate(-221.8 -654)"/><path class="cls-23" d="M344.36,694.48s7.71-11.57,19.84-13.78c0,0-9.92,13.23-15.43,13.23" transform="translate(-221.8 -654)"/><path class="cls-23" d="M345.07,696.33s9.17-26.94,35.4-20.34C380.47,676,358.63,669.6,345.07,696.33Z" transform="translate(-221.8 -654)"/><path class="cls-23" d="M339.56,700.74S348.73,673.8,375,680.4C375,680.4,353.12,674,339.56,700.74Z" transform="translate(-221.8 -654)"/><path class="cls-23" d="M354.82,688s5.16-28,32.06-25.27C386.88,662.75,364.35,659.6,354.82,688Z" transform="translate(-221.8 -654)"/><path class="cls-23" d="M364.38,679.81s-4.68-34.55,25.35-7.93C389.73,671.88,364.25,648.36,364.38,679.81Z" transform="translate(-221.8 -654)"/><path class="cls-23" d="M376.71,678.83s9.87-26.69,35.91-19.42C412.62,659.41,391,652.45,376.71,678.83Z" transform="translate(-221.8 -654)"/><path class="cls-23" d="M336.63,719.44s5.16-28,32.06-25.27C368.69,694.17,346.16,691,336.63,719.44Z" transform="translate(-221.8 -654)"/><path class="cls-23" d="M337.32,714.89s-2.7-14.17,9.18-19.85C346.5,695,336.39,699.4,337.32,714.89Z" transform="translate(-221.8 -654)"/><path class="cls-23" d="M337.3,741.83s-6.19-13,3.88-21.53C341.18,720.3,332.5,727.06,337.3,741.83Z" transform="translate(-221.8 -654)"/><path class="cls-23" d="M353.18,724.24s5.51-5,7.71-5.51l-7.71.55-1.11,3.86Z" transform="translate(-221.8 -654)"/><path class="cls-23" d="M344.6,701.35S333.52,673.59,365.2,685C365.2,685,338.14,674.52,344.6,701.35Z" transform="translate(-221.8 -654)"/></g><g id="Glasses_" data-name="Glasses\"><path class="cls-24" d="M397.24,771.64h-4.62l-1.15,4.41L386,797c1.8-5.41,10.67-19.8,10.67-19.8l1.15-.55Z" transform="translate(-221.8 -654)"/><path class="cls-25" d="M393.41,773.85s6.53-2.76,12.13,0l-.94-3.31s-1.86-.55-11.19,0v3.31" transform="translate(-221.8 -654)"/><path class="cls-26" d="M398.1,770.82s4.41-.56,6.61,0c0,0,1.65,25.9,17.64,28.66,0,0,22,6.06,32-12.68a38.1,38.1,0,0,0,3.86-14.33s1.1-6.06,5.51-6.06l6.62.55V765.3l-6.06-3.85s-4.41,1.1-7.17-.56c0,0-5.51-1.65-6.06-2.2,0,0-13.78-7.16-32.52.55,0,0-8.82,3.31-10.47,6.06s0,.56,0,.56a59.32,59.32,0,0,0-9.92-.56A46.15,46.15,0,0,0,398.1,770.82Z" transform="translate(-221.8 -654)"/><path class="cls-3" d="M437,757.31s13.23.55,17.09,8.82c0,0,1.93,6.34.27,16.26,0,0-7.71,17.64-22,16,0,0-16,1.11-20.4-11.57,0,0-4.4-7.72-1.65-16.54C410.22,770.26,413.53,757.59,437,757.31Z" transform="translate(-221.8 -654)"/><path class="cls-21" d="M425.34,797.75S429.24,792,432,792h0s10.47-14.33,13.23-14.89l8.93-10.58v0l0,.2,0,.1.11.52.13.65-8.15,9.64s-.55,1.65-.55,1.1c0,0-8.82,14.88-11,15.43,0,0,5.4,3.22,4.08,3.54L438,798l-.9.2-1.51.21-.49,0-.55,0h-1l-.95-.07-.41,0H430.5l-1.35-.07-1.06-.11-.76-.09-.89-.15Z" transform="translate(-221.8 -654)"/><path class="cls-26" d="M400.68,770s-4.42-.45-6.61.15c0,0-1.08,25.93-17,29,0,0-21.91,6.55-32.24-12A38.14,38.14,0,0,1,340.66,773s-1.24-6-5.65-5.94l-.66-4.95s4.44,1,7.16-.71c0,0,5.47-1.77,6-2.34,0,0,13.62-7.46,32.52-.16,0,0,8.89,3.11,10.6,5.83s0,.55,0,.55,6.3-1.51,9.9-.77Z" transform="translate(-221.8 -654)"/><path class="cls-3" d="M361.54,757.38s-13.21.84-16.89,9.19c0,0-1.79,6.38.08,16.26,0,0,8.11,17.46,22.4,15.5,0,0,16,.75,20.13-12,0,0,4.24-7.82,1.29-16.57C388.55,769.74,385,757.14,361.54,757.38Z" transform="translate(-221.8 -654)"/><path class="cls-21" d="M361.44,769.63l-15-5.49-.36.07c-.43.73-.87,1.35-1.24,2,0,.13-.07.26-.12.39l-.24.59a.91.91,0,0,1-.09.27,2.85,2.85,0,0,1,0,.51l17.6,5.59C359.11,771.23,361.44,769.63,361.44,769.63Z" transform="translate(-221.8 -654)"/><path class="cls-26" d="M394,771.09a39.83,39.83,0,0,1,10.81.16l-.34-6.22s-4.37-1.82-13.76-.08Z" transform="translate(-221.8 -654)"/><path class="cls-26" d="M404.43,765s3.86.55,5.52,1.65L407.74,770l-3,.32Z" transform="translate(-221.8 -654)"/><path class="cls-26" d="M334.44,762.27v5.51l1.61,1.61,0,.05.55.55s-.55-5,0-5.51-1.65-1.66-1.65-1.66v2.76" transform="translate(-221.8 -654)"/></g><g id="eye"><path class="cls-27" d="M383.49,776.19s-.48-1.88-6.28-3.76c0,0-9.43.23-12.82-.24,0,0-2.41.94-3.86.47s0,1.42,0,1.42,1.69-.24,4.83,1.88C365.6,778.08,382.76,776.43,383.49,776.19Z" transform="translate(-221.8 -654)"/><path class="cls-28" d="M418.33,768.93A26.23,26.23,0,0,1,433,766.57s-1.87-2.09-8.45-1.13A11,11,0,0,0,418.33,768.93Z" transform="translate(-221.8 -654)"/><path class="cls-29" d="M416.28,770.82a20.75,20.75,0,0,1,14.33-4.41s5-.55,11,4.41c0,0,1.65,1.1-7.17,0,0,0-10.47,0-16,.55C418.49,771.37,413.53,772.47,416.28,770.82Z" transform="translate(-221.8 -654)"/><path class="cls-30" d="M423.14,767.26s-1.47,2.62.38,3.78c0,0,7.37.05,9.06-.21,0,0,1.93-2.17.4-4.26A20.88,20.88,0,0,0,423.14,767.26Z" transform="translate(-221.8 -654)"/><path class="cls-31" d="M413,770.26s14.33-16,28.11-3.3C441.09,767,429.51,755.38,413,770.26Z" transform="translate(-221.8 -654)"/><path class="cls-31" d="M438.61,768.49s2.44,2.56,5.22,2.91C443.83,771.4,440.19,771.34,438.61,768.49Z" transform="translate(-221.8 -654)"/><path class="cls-27" d="M413.8,776.05a23.74,23.74,0,0,0,20.95,2.21s4.68-3,8.54-3c0,0-5-1.65-8.82.56s-19.84,0-18.74-1.66A2,2,0,0,0,413.8,776.05Z" transform="translate(-221.8 -654)"/><path class="cls-32" d="M413.8,776.05s.55-2.2,7.17-4.41c0,0,10.75.28,14.6-.27,0,0,2.76,1.1,4.41.55s0,1.65,0,1.65-1.93-.27-5.51,2.21C434.2,778.26,414.63,776.33,413.8,776.05Z" transform="translate(-221.8 -654)"/><path class="cls-33" d="M413.8,776.05s1.11-2.75,2.74-3.08C416.54,773,413.8,773.85,413.8,776.05Z" transform="translate(-221.8 -654)"/><path class="cls-31" d="M416.8,770.4s2.24-4.54,8.85-5.1C425.65,765.3,421.73,765,416.8,770.4Z" transform="translate(-221.8 -654)"/><path class="cls-33" d="M413.8,772.74a14.54,14.54,0,0,1,7.17-5s10.75-4.13,18.46,1.38c0,0,2.15,1.84,2.32,1.88,0,0,.37.32-3.31.19s.25-1.54-5.3-4.42c0,0-7.1-.39-10.19.84s-6.39,3.44-5.84,3.44.51.12,1.08.34A14.05,14.05,0,0,0,413.8,772.74Z" transform="translate(-221.8 -654)"/><path class="cls-28" d="M381.17,770a26.33,26.33,0,0,0-14.65-2.36s1.87-2.09,8.45-1.13A11.13,11.13,0,0,1,381.17,770Z" transform="translate(-221.8 -654)"/><path class="cls-29" d="M383.21,771.92a20.73,20.73,0,0,0-14.33-4.41s-5-.55-11,4.41c0,0-1.65,1.1,7.17,0,0,0,10.47,0,16,.55C381,772.47,386,773.57,383.21,771.92Z" transform="translate(-221.8 -654)"/><path class="cls-30" d="M376.36,768.36s1.47,2.63-.38,3.78c0,0-7.37.05-9.07-.21,0,0-1.93-2.17-.39-4.26A20.88,20.88,0,0,1,376.36,768.36Z" transform="translate(-221.8 -654)"/><path class="cls-31" d="M384,770s-15.12-13.58-25.43.65C358.61,770.64,367.13,757.79,384,770Z" transform="translate(-221.8 -654)"/><path class="cls-31" d="M360.82,769.86s-2.77,2.74-5.61,2.35A5,5,0,0,0,360.82,769.86Z" transform="translate(-221.8 -654)"/><path class="cls-27" d="M385.69,776.85s-9.37,9.36-20.94,3.12c0,0-4.68-4.29-8.54-4.29,0,0,5-2.34,8.82.78s19.84,0,18.74-2.34C383.77,774.12,385.42,774.12,385.69,776.85Z" transform="translate(-221.8 -654)"/><path class="cls-32" d="M382.94,776.75s-.48-1.89-6.29-3.77c0,0-9.42.24-12.81-.24,0,0-2.41,1-3.86.48s0,1.41,0,1.41,1.69-.24,4.83,1.88C365.05,778.63,382.21,777,382.94,776.75Z" transform="translate(-221.8 -654)"/><path class="cls-33" d="M385.69,777.15s-1.1-2.75-2.73-3.08C383,774.07,385.69,775,385.69,777.15Z" transform="translate(-221.8 -654)"/><path class="cls-31" d="M382.69,771.5s-2.23-4.54-8.85-5.09C373.84,766.41,377.77,766.12,382.69,771.5Z" transform="translate(-221.8 -654)"/><path class="cls-33" d="M385.69,773.85a14.5,14.5,0,0,0-7.16-5.09s-10.75-4.24-18.46,1.41c0,0-2.16,1.88-2.32,1.93,0,0-.38.33,3.31.19s-.25-1.57,5.3-4.53c0,0,7.1-.4,10.18.86s6.4,3.53,5.85,3.53-.52.13-1.09.35A13.77,13.77,0,0,1,385.69,773.85Z" transform="translate(-221.8 -654)"/><path class="cls-34" d="M366.34,767.87a1.13,1.13,0,0,1-.21-.56" transform="translate(-221.8 -654)"/><path class="cls-33" d="M363.65,769.44l3.31-1.66C368.06,767.23,363.1,767.78,363.65,769.44Z" transform="translate(-221.8 -654)"/></g><g id="nose_and_smile_lines" data-name="nose and smile lines"><path class="cls-35" d="M416.56,809.67s2.76-2.2,3.86,1.66c0,0,5,14.33,11,12.67v5s4.27,5.62,5.17,4.19c0,0,3.27-9.21,2.91-11.94,0,0-2.62-11.79-21.88-20.48A8.68,8.68,0,0,1,419,805s0,3.86-2.2,4.41S416.56,809.67,416.56,809.67Z" transform="translate(-221.8 -654)"/><path class="cls-36" d="M401.68,814.63s4.41-8.82,12.12-6.06C413.8,808.57,411.05,809.12,401.68,814.63Z" transform="translate(-221.8 -654)"/><path class="cls-4" d="M397,815.46s-1.81-13.78,4.25-18.74,3.63-8.82,3-11.57c0,0,8.48,9.37,3.63,18.18,0,0-4.24,8.27-7.88,12.13A4.59,4.59,0,0,1,397,815.46Z" transform="translate(-221.8 -654)"/><path class="cls-25" d="M411.32,799.48s2.76-1.11,3.86-.56c0,0-5.51-12.67-10.47-13.77C404.71,785.15,410.77,793.41,411.32,799.48Z" transform="translate(-221.8 -654)"/><path class="cls-37" d="M405.14,808.93s4-6.7,8.94-4.49c0,0,2.2,1.65,1.1,3.85,0,0,.55.56-1.1.56,0,0-3.86-2.92-9.37,1.85Z" transform="translate(-221.8 -654)"/><path class="cls-24" d="M411.72,792.31a94.48,94.48,0,0,1,7,13S415.7,794.79,411.72,792.31Z" transform="translate(-221.8 -654)"/><path class="cls-37" d="M405.92,809.75a52.49,52.49,0,0,0-4.24,4.88s1.88-4.84,4.24-6.83" transform="translate(-221.8 -654)"/><path class="cls-38" d="M401.11,815.23s0,1.14-3.19,0c0,0-.64-.58,1.28-1.15h1.91s1.28.57,0,1.15" transform="translate(-221.8 -654)"/><path class="cls-24" d="M417,800.43s16.62,5.38,23.23,20.27c0,0-.83,9.64-5.24,16.81,0,0,5.52-14.33,4.41-16.54C439.43,821,436.52,810.19,417,800.43Z" transform="translate(-221.8 -654)"/><path class="cls-39" d="M415.91,809.74s2.3-1.72,4,.48c0,0,.19,5.55,7.53,12.7a4,4,0,0,0,3.87,1.12s-.38,0,.17,4.92c0,0,2.21-1.65,1.1-7.71s-6.61-10.48-11.57-11.58S419.12,808.16,415.91,809.74Z" transform="translate(-221.8 -654)"/><path class="cls-40" d="M401.23,797.47s7.06-4.48,3.48-12.12-.28.07-.28.07-3.85-9.92-5-9.37c0,0-1.1-3.86-1.65,21v3.85S400.78,796.85,401.23,797.47Z" transform="translate(-221.8 -654)"/><path class="cls-40" d="M396.16,797.47s-3.45-4.48-1.7-12.12.13.07.13.07,1.26-6.61,2-8.74c.17-.48.31-.73.41-.63s.54-3.86.81,21v3.85S396.38,796.85,396.16,797.47Z" transform="translate(-221.8 -654)"/><path class="cls-40" d="M397.82,775.5s-1.22.42-1.16,1,.61,19.35.61,19.35l.55,3.31.55-.55,1.1-3.31,1.11-4.41,1.1-7.71L399.27,776S397.82,775,397.82,775.5Z" transform="translate(-221.8 -654)"/><path class="cls-36" d="M383.5,810.22s8.12,1.66,11,4.41c0,0-4.05-5.51-8.69-7.71C385.82,806.92,382.34,807.47,383.5,810.22Z" transform="translate(-221.8 -654)"/><path class="cls-4" d="M399.65,815.54a12.06,12.06,0,0,1-4-.36s-6.62-6.61-9.93-8.26a7.83,7.83,0,0,0-2.2,1.1s-2.2-1.65,0-2.76,3.86-1.1,7.17.55,3.3.56,4.4-1.65,3.86,2.21,3.86,3.86S400.38,814.8,399.65,815.54Z" transform="translate(-221.8 -654)"/><path class="cls-25" d="M390.1,801.41s-.55-11.58,3.31-19.85a53.18,53.18,0,0,0-5.51,16S387.9,799.2,390.1,801.41Z" transform="translate(-221.8 -654)"/><path class="cls-24" d="M385.69,797s-5,2.2-6.06,7.16c0,0-.55,5.51,3.31,5.51,0,0-3.86,1.1-3.86-5.51A10,10,0,0,1,385.69,797Z" transform="translate(-221.8 -654)"/><path class="cls-37" d="M382.88,806s2.58-2.68,8.21.21a20.27,20.27,0,0,0-4.29-2.62C385.14,803.06,380.61,805.68,382.88,806Z" transform="translate(-221.8 -654)"/><path class="cls-35" d="M380.81,811.08s-3.09-2-4.07,1.87c0,0-4.58,14.58-11.21,13.29l.27,4.94s-4.3,5.85-5.35,4.48c0,0-4-9-3.79-11.73,0,0,2.19-11.9,22.5-21.7a8.28,8.28,0,0,0-1.28,4.33s.21,3.84,2.62,4.26S380.81,811.08,380.81,811.08Z" transform="translate(-221.8 -654)"/><path class="cls-24" d="M378,802.51s-16.32,6.2-22.13,21.18c0,0,1.34,9.44,6.13,16.24,0,0-6.28-13.79-5.29-16C356.69,823.92,359,813.17,378,802.51Z" transform="translate(-221.8 -654)"/><path class="cls-39" d="M381.51,811.11s-2.57-1.58-4.24.71c0,0,.1,5.54-7.44,13.1a4.55,4.55,0,0,1-4.11,1.35s.4-.07.08,4.91c0,0-2.47-1.52-1.61-7.63s6.57-10.82,11.86-12.21S378,809.72,381.51,811.11Z" transform="translate(-221.8 -654)"/><path class="cls-35" d="M380,801.92s-1.62,2.46-.73,4.56c0,0,.75,3.41,2.75,3.3,0,0-3.51-.11-5.16,2.65s-1.11-3.86-1.11-3.86l.55-3.31S378.2,801.88,380,801.92Z" transform="translate(-221.8 -654)"/></g><g id="eyebrow"><path class="cls-23" d="M409.39,762.27s6.07-6.06,20.4-7.71a105.47,105.47,0,0,1,22,3.85l2.76-1.1a9.88,9.88,0,0,0-2.76-3.86,14.08,14.08,0,0,0-7.16-5c-4.41-1.1-3.31-1.1-9.37-1.1s-10.47-1.1-13.78-.55-5.51,2.2-8.27,4.41S407.19,757.31,409.39,762.27Z" transform="translate(-221.8 -654)"/><path class="cls-23" d="M420,753.68l8.25-1.19c1.9-.27,1.09-3.16-.8-2.89l-8.25,1.19c-1.9.27-1.09,3.16.8,2.89Z" transform="translate(-221.8 -654)"/><path class="cls-23" d="M424.83,747.39s0-.55,5.51-.55c0,0-4.41.55-5.51.55Z" transform="translate(-221.8 -654)"/><path class="cls-23" d="M414.07,750.6a12.88,12.88,0,0,1,2.49-2.11S414.88,750,414.07,750.6Z" transform="translate(-221.8 -654)"/><path class="cls-23" d="M445.57,748.76s1.3-.27,3,1.39A24.66,24.66,0,0,0,445.57,748.76Z" transform="translate(-221.8 -654)"/><path class="cls-23" d="M413.25,759.52a12.32,12.32,0,0,0-3.41,2.55S412.15,759.52,413.25,759.52Z" transform="translate(-221.8 -654)"/><path class="cls-23" d="M421.87,756.07a44.59,44.59,0,0,1,5.16-1S423.32,754.84,421.87,756.07Z" transform="translate(-221.8 -654)"/><path class="cls-23" d="M414.7,758.79s3-1.48,4.62-1.48C419.32,757.31,415.61,758.05,414.7,758.79Z" transform="translate(-221.8 -654)"/><path class="cls-23" d="M408.94,757.1s.45-3.09,2.11-3.65A4.8,4.8,0,0,0,408.94,757.1Z" transform="translate(-221.8 -654)"/><path class="cls-41" d="M410,759.52s-.56-3.31,1.65-4.41C411.6,755.11,410,756.21,410,759.52Z" transform="translate(-221.8 -654)"/><path class="cls-41" d="M412.15,759a24.84,24.84,0,0,1,13.78-5.52S416.56,753.45,412.15,759Z" transform="translate(-221.8 -654)"/><path class="cls-41" d="M438.05,749.6s5.52-.56,11.58,6.06A14.36,14.36,0,0,0,438.05,749.6Z" transform="translate(-221.8 -654)"/><path class="cls-41" d="M418.76,750.7a22.53,22.53,0,0,1,9.37-1.1S421.52,748.49,418.76,750.7Z" transform="translate(-221.8 -654)"/><path class="cls-41" d="M432.54,752.35s10.63,2.29,13,4.45C445.57,756.8,441.36,754,432.54,752.35Z" transform="translate(-221.8 -654)"/><path class="cls-41" d="M428.13,752.35a18.27,18.27,0,0,1,6.07-1.1A10.27,10.27,0,0,0,428.13,752.35Z" transform="translate(-221.8 -654)"/><path class="cls-23" d="M388.92,762.69s-6-5.37-20-6.71c0,0-1.44-.87-21.49,3.66l-2.69-1a8.83,8.83,0,0,1,2.65-3.47,13.66,13.66,0,0,1,6.95-4.5c4.29-1,3.22-1,9.14-1.08s10.21-1.08,13.44-.62,5.4,1.92,8.11,3.86S391,758.23,388.92,762.69Z" transform="translate(-221.8 -654)"/><path class="cls-23" d="M378.87,752.31l-8.06-1c-1.91-.23-1.9,2.77,0,3l8.06,1c1.91.23,1.89-2.77,0-3Z" transform="translate(-221.8 -654)"/><path class="cls-23" d="M375.93,749s0-.49-5.38-.44c0,0,4.3.45,5.38.44Z" transform="translate(-221.8 -654)"/><path class="cls-23" d="M384.25,752.3a11.74,11.74,0,0,0-2.45-1.86S383.45,751.73,384.25,752.3Z" transform="translate(-221.8 -654)"/><path class="cls-23" d="M351.84,752.06a3.65,3.65,0,0,0-2.87,1.26A25,25,0,0,1,351.84,752.06Z" transform="translate(-221.8 -654)"/><path class="cls-23" d="M385.13,760.26a12,12,0,0,1,3.35,2.25S386.2,760.25,385.13,760.26Z" transform="translate(-221.8 -654)"/><path class="cls-23" d="M376.69,757.27a46.56,46.56,0,0,0-5.05-.82S375.26,756.17,376.69,757.27Z" transform="translate(-221.8 -654)"/><path class="cls-23" d="M383.7,759.62a15.17,15.17,0,0,0-4.51-1.27S382.82,759,383.7,759.62Z" transform="translate(-221.8 -654)"/><path class="cls-23" d="M389.31,758.06s-.47-2.76-2.08-3.24A4.3,4.3,0,0,1,389.31,758.06Z" transform="translate(-221.8 -654)"/><path class="cls-41" d="M388.35,760.23s.51-3-1.65-3.93C386.7,756.3,388.33,757.27,388.35,760.23Z" transform="translate(-221.8 -654)"/><path class="cls-41" d="M381.54,756.36a32.42,32.42,0,0,0-16.25-2.72S375.87,752.17,381.54,756.36Z" transform="translate(-221.8 -654)"/><path class="cls-41" d="M357,752.75s-4.35-.45-9.07,5.51C347.94,758.26,350.93,752.81,357,752.75Z" transform="translate(-221.8 -654)"/><path class="cls-41" d="M372,751.33a24,24,0,0,0-9.16-.9S369.25,749.38,372,751.33Z" transform="translate(-221.8 -654)"/><path class="cls-41" d="M366.24,754s-10.35,2.14-12.68,4.1C353.56,758.14,357.65,755.6,366.24,754Z" transform="translate(-221.8 -654)"/><path class="cls-41" d="M381.56,752.89a19.27,19.27,0,0,0-5.92-.92A10.81,10.81,0,0,1,381.56,752.89Z" transform="translate(-221.8 -654)"/><path class="cls-23" d="M350.49,758s-.18-.46-5.18,1.52c0,0,4.18-1.13,5.18-1.52Z" transform="translate(-221.8 -654)"/></g><g id="lips"><polygon class="cls-42" points="175.38 174.32 175.47 175.51 177.67 175.51 176.93 174.33 175.38 174.32"/><polygon class="cls-43" points="171.61 184.33 172.16 187.09 177.12 187.64 178.22 187.09 177.67 185.99 177.67 184.88 177.12 184.33 171.61 184.33"/><polygon class="cls-44" points="171.61 176.06 171.61 175.51 175.5 176.11 177.67 176.62 176.57 178.27 176.18 179.98 174.91 181.03 171.61 179.37 171.06 177.17 171.61 176.06"/><path class="cls-44" d="M393.41,830.07a5.36,5.36,0,0,1,3.86.55,30.43,30.43,0,0,1,.55,5l1.1,2.2-.55,1.1a29.11,29.11,0,0,1-4.41.56c-1.65,0-2.75-5-2.75-5l.55-3.3s.71-2,1.73-1.27" transform="translate(-221.8 -654)"/><path class="cls-45" d="M421.52,827.86s.55,3.31,0,5c0,0,8.38-5.65,9.15-5.58l.22-.48a2.41,2.41,0,0,0-1.65-.55H421Z" transform="translate(-221.8 -654)"/><path class="cls-46" d="M371,827.5a5.19,5.19,0,0,0,.08,2.47s-5.67-2.65-6.19-2.6l-.15-.23a1.9,1.9,0,0,1,1.09-.31h0l5.51-.17Z" transform="translate(-221.8 -654)"/><polygon class="cls-43" points="176.57 184.33 176.57 187.64 182.63 188.19 187.59 187.09 192 184.88 195.31 182.68 190.35 181.58 182.08 182.68 176.57 184.33"/><path class="cls-44" d="M421.52,827.86a5.54,5.54,0,0,1,.55,1.65s.29,2.25-.4,2.78S421.52,827.86,421.52,827.86Z" transform="translate(-221.8 -654)"/><path class="cls-47" d="M403.91,842.19s.56-3.26,0-3.86C403.9,838.33,405,839.22,403.91,842.19Z" transform="translate(-221.8 -654)"/><path class="cls-47" d="M399.45,842.19s-.57-3.26,0-3.86C399.43,838.33,398.33,839.23,399.45,842.19Z" transform="translate(-221.8 -654)"/><path class="cls-47" d="M409.75,841.05s.93-3.18.44-3.83C410.19,837.22,411.21,838.23,409.75,841.05Z" transform="translate(-221.8 -654)"/><path class="cls-44" d="M421.73,829.34s.34-1.48-2.41-1.48a1.91,1.91,0,0,0-.56,1.1Z" transform="translate(-221.8 -654)"/><path class="cls-44" d="M421.67,828.84s-14.2-1.81-19.16-.15a18.11,18.11,0,0,0-3.31,1.65s-1.07-6.41-1.35.68a2.16,2.16,0,0,1,0,1.6v0c0,.71,0,1.52,0,2.43.08.4.18.81.24,1.23a3.59,3.59,0,0,1-.22,1.91c0,.22,0,.43,0,.65,0,0,6.61,1.11,7.72,0a1.92,1.92,0,0,0,.55-1.1s4.68.83,6.34-.83a2.24,2.24,0,0,0,2,0s6.58-2.71,7.27-4.66A7.11,7.11,0,0,0,421.67,828.84Z" transform="translate(-221.8 -654)"/><path class="cls-48" d="M417.66,830.07s.55,6.06,0,7.16C417.66,837.23,418.76,835.58,417.66,830.07Z" transform="translate(-221.8 -654)"/><path class="cls-42" d="M398.65,832a4.77,4.77,0,0,1,4.41-2.2s3,.28,3,.83A4.6,4.6,0,0,1,410,829s2.75,0,2.75,1.66c0,0,.55-1.66,3.31-1.66a2,2,0,0,1,1.65,1.11,2.46,2.46,0,0,1,2.21-1.66s2.2,0,2.2,1.1V827s-15.43-1.92-23.7.84l-.55,1.1S397.82,831.17,398.65,832Z" transform="translate(-221.8 -654)"/><path class="cls-49" d="M431.17,827s-13.78,12.13-20.95,17.64c0,0-7.16,5-12.12,5v-8.27s7.71,1.11,12.12-1.65C410.22,839.71,430.06,826.48,431.17,827Z" transform="translate(-221.8 -654)"/><path class="cls-49" d="M431.44,826.76s-8.27,0-17.64.55c0,0-13.78,0-16,1.65v-2.2a10.5,10.5,0,0,1,5.79-1.38S426.76,824.28,431.44,826.76Z" transform="translate(-221.8 -654)"/><path class="cls-49" d="M431.23,826.76s.57-.45-.44.6c0,0-.45.5.1-.6Z" transform="translate(-221.8 -654)"/><path class="cls-48" d="M406.09,830.62s.55,6.06,0,7.16C406.09,837.78,407.19,836.13,406.09,830.62Z" transform="translate(-221.8 -654)"/><path class="cls-48" d="M412.7,830.62s.55,5.13,0,6.06C412.7,836.68,413.8,835.28,412.7,830.62Z" transform="translate(-221.8 -654)"/><path class="cls-50" d="M374,827.86s-.55,3.31,0,5c0,0-8.38-5.65-9.15-5.58l-.22-.48a2.41,2.41,0,0,1,1.65-.55h8.27Z" transform="translate(-221.8 -654)"/><path class="cls-43" d="M396.1,839.71c-1.3.36-3.17-.45-3.39-1.92,0-.28-.09-.55-.14-.82l-.95-.29-8.27-1.1-5,1.1,3.31,2.2,4.41,2.21,5,1.1,6.06-.55v-2.46A2.58,2.58,0,0,1,396.1,839.71Z" transform="translate(-221.8 -654)"/><path class="cls-44" d="M374,827.86a5.54,5.54,0,0,0-.55,1.65s-.29,2.25.4,2.78S374,827.86,374,827.86Z" transform="translate(-221.8 -654)"/><path class="cls-47" d="M391.59,842.19s-.56-3.26,0-3.86C391.6,838.33,390.47,839.22,391.59,842.19Z" transform="translate(-221.8 -654)"/><path class="cls-47" d="M396.3,839.64a17.72,17.72,0,0,1-.25,2.55,5.92,5.92,0,0,0,.48-2.64Z" transform="translate(-221.8 -654)"/><path class="cls-47" d="M385.75,841.05s-.93-3.18-.44-3.83C385.31,837.22,384.29,838.23,385.75,841.05Z" transform="translate(-221.8 -654)"/><path class="cls-44" d="M373.77,829.34s-.34-1.48,2.41-1.48a1.91,1.91,0,0,1,.56,1.1Z" transform="translate(-221.8 -654)"/><path class="cls-44" d="M397.63,830.55c-.23-4.8-.88-2.44-1.17-1A3,3,0,0,1,397.63,830.55Z" transform="translate(-221.8 -654)"/><path class="cls-44" d="M392.71,837.79c-.12-.88-.31-1.75-.45-2.61a4.71,4.71,0,0,1,.95-5.24,2.4,2.4,0,0,1,1.14-.67c-.72-.33-1.36-.58-1.36-.58-5-1.66-19.16.15-19.16.15a7.11,7.11,0,0,0,0,3.45c.68,2,7.27,4.66,7.27,4.66a2.24,2.24,0,0,0,2,0c1.66,1.66,6.34.83,6.34.83a1.92,1.92,0,0,0,.55,1.1c.51.51,2.19.55,3.85.45A2.23,2.23,0,0,1,392.71,837.79Z" transform="translate(-221.8 -654)"/><path class="cls-48" d="M377.84,830.07s-.55,6.06,0,7.16C377.84,837.23,376.74,835.58,377.84,830.07Z" transform="translate(-221.8 -654)"/><path class="cls-42" d="M393.32,829.85a2.93,2.93,0,0,1,4.21.56,8.34,8.34,0,0,0,.15-1.45l-.55-1.1c-8.27-2.76-23.7-.84-23.7-.84v2.49c0-1.1,2.2-1.1,2.2-1.1a2.46,2.46,0,0,1,2.21,1.66,2,2,0,0,1,1.65-1.11c2.76,0,3.31,1.66,3.31,1.66,0-1.66,2.75-1.66,2.75-1.66a4.6,4.6,0,0,1,3.86,1.66c0-.55,3-.83,3-.83A6.09,6.09,0,0,1,393.32,829.85Z" transform="translate(-221.8 -654)"/><path class="cls-49" d="M364.33,827s13.65,13,20.95,17.64c0,0,7.16,5,12.12,5v-8.27s-6.74.83-12.12-1.65C385.28,839.71,365.44,826.48,364.33,827Z" transform="translate(-221.8 -654)"/><path class="cls-49" d="M364.2,826.74s8.27,0,17.64.56c0,0,13.78,0,16,1.66v-2.22L392,825.35S368.06,823.45,364.2,826.74Z" transform="translate(-221.8 -654)"/><path class="cls-49" d="M364.27,826.76s-.57-.45.44.6c0,0,.45.5-.1-.6Z" transform="translate(-221.8 -654)"/><path class="cls-48" d="M389.41,830.62s-.55,6.06,0,7.16C389.41,837.78,388.31,836.13,389.41,830.62Z" transform="translate(-221.8 -654)"/><path class="cls-48" d="M382.8,830.62s-.55,5.13,0,6.06C382.8,836.68,381.7,835.28,382.8,830.62Z" transform="translate(-221.8 -654)"/><path class="cls-48" d="M398.84,831.79s-1.45,5.92-1.06,7.09C397.78,838.88,396.93,837.08,398.84,831.79Z" transform="translate(-221.8 -654)"/><polygon class="cls-34" points="170.5 176.06 171.06 174.96 177.25 175.38 179.88 177.17 177.67 177.72 177.12 177.17 176.57 178.82 176.02 180.47 173.81 179.92 170.5 176.06"/><path class="cls-42" d="M392.06,829.82s5.21-.31,5.76,1.35,1.39-1.71,1.39-1.71S394.56,827.93,392.06,829.82Z" transform="translate(-221.8 -654)"/><path class="cls-48" d="M397.35,830.73s1.18,2.17.59,2.74C397.94,833.47,399.17,832.54,397.35,830.73Z" transform="translate(-221.8 -654)"/><polyline class="cls-49" points="176.02 172.76 176.02 172.76 175.47 172.76 174.91 173.86 176.02 174.96 176.57 174.41 176.02 172.76"/><polygon class="cls-49" points="175.51 187.39 176.39 187.39 177.12 189.29 176.3 195.58 175.43 195.62 173.81 194.25 175.51 187.39"/><path class="cls-42" d="M373.57,829s-.49-.92-3-2.11l4.44,0-1.49,2.17" transform="translate(-221.8 -654)"/></g><g id="ear"><path class="cls-21" d="M469.75,777.43s6.61-8.27,7.71-8.27c0,0,3.31-1.65,2.21,5.51,0,0-1.66,9.92-2.76,10.48,0,0-1.65.55-1.65-.56,0,0,.55-13.77-.55-10.47C474.71,774.12,475.26,772.47,469.75,777.43Z" transform="translate(-221.8 -654)"/><path class="cls-21" d="M467.54,790.66s1.1,3.86,0,5.51c0,0,4.41,1.1,5-6.61,0,0,.55-7.17-4.41-8.27A72.14,72.14,0,0,1,467.54,790.66Z" transform="translate(-221.8 -654)"/><path class="cls-21" d="M466.16,800.3s-4.41.55-2.75,3.31c0,0,1.38,3,3.58.83,0,0,1.65,0-.55,2.2,0,0-4.41,1.65-5-1.65C461.48,805,460.93,799.48,466.16,800.3Z" transform="translate(-221.8 -654)"/><path class="cls-21" d="M473.33,795.89a5.94,5.94,0,0,1-2.21,4.41s-1.65.55-1.65,1.66c0,0-.73-1.22,1-2.74l.37-.3C473.05,797.27,472.5,797.27,473.33,795.89Z" transform="translate(-221.8 -654)"/></g></svg>