<svg id="Layer_1" data-name="Layer 1" xmlns="http://www.w3.org/2000/svg" viewBox="0 0 336.9 351.1"><defs><style>.cls-1{fill:#26a96c;}.cls-2,.cls-4,.cls-5,.cls-8,.cls-9{fill:none;}.cls-2,.cls-3,.cls-5,.cls-6,.cls-7,.cls-8,.cls-9{stroke:#000;stroke-miterlimit:10;}.cls-2,.cls-6{stroke-width:4px;}.cls-3,.cls-8{stroke-width:5px;}.cls-5{stroke-width:3px;}.cls-6{fill:#fff;}.cls-7{fill:#020202;}.cls-7,.cls-9{stroke-width:6px;}</style></defs><title>techIcon</title><path class="cls-1" d="M461,353.1c30.4-19.1,68.5-23,104-17.3,7.5,1.2,15.5,3.2,20.6,8.9,8.2,9,5.5,23.2,1.7,34.8s-8.3,24.7-2.4,35.4c2.6,4.7,6.9,8.2,11,11.6,24.3,20.5,47.1,44.3,58.6,74,4.2,10.8,6.8,22.4,5.9,34s-5.3,23.1-13.7,31.1-18.5,11.4-28.9,14.2c-17.3,4.8-35.2,7.2-52.5,11.9s-34.5,11.6-47.5,23.9c-8.7,8.3-15.9,19.1-27.2,23.2s-22.2.8-32.4-3.6c-13-5.8-25.2-14.4-32.4-26.7-10.4-17.9-8.3-40.4-2.8-60.3s14.2-39.2,16.3-59.8c.6-5.8.7-11.9-1.3-17.4a39.5,39.5,0,0,0-7.4-11.6c-5-5.8-14.7-11.5-16.9-19.1s.1-16.9,1.6-23.9c3.7-16.8,12.3-32.3,23.8-45A101,101,0,0,1,461,353.1Z" transform="translate(-358 -306)"/><path d="M586,556H455a15,15,0,0,1-15-15V410a15,15,0,0,1,15-15H586a15,15,0,0,1,15,15V541A15,15,0,0,1,586,556Zm-3-33V428a15,15,0,0,0-15-15H473a15,15,0,0,0-15,15v95a15,15,0,0,0,15,15h95A15,15,0,0,0,583,523Z" transform="translate(-358 -306)"/><path d="M541,511H500a15,15,0,0,1-15-15V455a15,15,0,0,1,15-15h41a15,15,0,0,1,15,15v41A15,15,0,0,1,541,511Zm7.1-22.9V462.9a15.1,15.1,0,0,0-15-15H507.9a15.1,15.1,0,0,0-15,15v25.2a15.1,15.1,0,0,0,15,15h25.2A15.1,15.1,0,0,0,548.1,488.1Z" transform="translate(-358 -306)"/><circle cx="24.5" cy="129.5" r="18.5"/><circle cx="208.6" cy="332.6" r="18.5"/><circle class="cls-2" cx="48" cy="178" r="14"/><circle cx="131" cy="16" r="16"/><circle class="cls-2" cx="304.5" cy="68.5" r="14"/><circle cx="200" cy="61" r="10"/><circle cx="8.5" cy="279.5" r="8.5"/><circle class="cls-2" cx="118.5" cy="279.5" r="8.5"/><line class="cls-3" x1="131" y1="18" x2="131" y2="89"/><line class="cls-4" x1="198" y1="61" x2="162" y2="61"/><polyline class="cls-5" points="198.5 61.5 173.5 61.5 173.5 89.5"/><polyline class="cls-2" points="322 170 322 200 243 200"/><line class="cls-6" x1="209" y1="333" x2="209" y2="245"/><circle cx="161.5" cy="277.5" r="7.5"/><line class="cls-7" x1="62" y1="178" x2="86" y2="178"/><circle cx="282.5" cy="200.5" r="8.5"/><line class="cls-8" x1="24" y1="129" x2="86" y2="129"/><polyline class="cls-8" points="8 279 8 217 86 217"/><circle cx="304.5" cy="106.5" r="7.5"/><circle cx="173" cy="62" r="7"/><polyline class="cls-9" points="304 82 304 107 243 107"/><line class="cls-8" x1="243" y1="134" x2="273" y2="134"/><circle cx="271.5" cy="133.5" r="7.5"/><polyline class="cls-2" points="127 279 161 279 161 243"/><circle cx="321.8" cy="169.6" r="15.1"/><circle cx="8.5" cy="217.5" r="7.5"/></svg>