<svg id="Layer_1" data-name="Layer 1" xmlns="http://www.w3.org/2000/svg" viewBox="0 0 79.61 20.76"><defs><style>.cls-1{fill:#c31230;}</style></defs><title>tjx-logo</title><polygon class="cls-1" points="27.64 4.85 30.34 0 35.3 0 30.53 8.3 34.73 15.55 29.98 15.55 27.62 11.43 22.84 20.15 17.78 20.15 24.62 8.32 19.83 0 24.95 0 27.64 4.85"/><polygon class="cls-1" points="5.19 4.03 1.73 4.03 0.13 4.03 0 4.03 0 0 6.06 0 8.8 0 15.15 0 15.15 4.03 15.04 4.03 13.49 4.03 9.96 4.03 9.96 11.1 9.96 20.08 9.96 20.13 7.59 20.13 5.19 20.13 5.19 20.08 5.19 11.1 5.19 4.03"/><path class="cls-1" d="M375.72,289.63h4.55V302.2c0,5.75-2.76,7.75-7.19,7.75a7.06,7.06,0,0,1-2.56-.33v-3.56a15.33,15.33,0,0,0,2,0c1.45-.11,3.17-.74,3.17-3.88V289.63Z" transform="translate(-360.2 -289.62)"/><path class="cls-1" d="M396.17,290.22v.34h.32c.09,0,.17,0,.18-.15s-.1-.19-.18-.19Zm-.12-.11h.44c.15,0,.3,0,.32.25a.26.26,0,0,1-.14.25c.11.06.11.08.13.25s0,.15,0,.24h-.15l0-.13c0-.11,0-.3-.17-.3h-.33v.43h-.12v-1Zm.33-.28a.8.8,0,0,0,0,1.6.8.8,0,0,0,0-1.6m0,1.7a.9.9,0,1,1,.9-.9.9.9,0,0,1-.9.9" transform="translate(-360.2 -289.62)"/><path class="cls-1" d="M388.72,307.26h-.2c0-.23,0-.58-.34-.71a1.12,1.12,0,0,0-.41,0l-.29,2.63c0,.12,0,.34.1.44a.25.25,0,0,0,.2.06v.14h-1.41l0-.14a.33.33,0,0,0,.22-.06c.15-.1.17-.32.19-.44l.28-2.63a1.21,1.21,0,0,0-.42,0,1,1,0,0,0-.49.71H386l.16-1h2.65Z" transform="translate(-360.2 -289.62)"/><path class="cls-1" d="M391.18,306.92a.47.47,0,0,0-.1-.45.25.25,0,0,0-.2-.06v-.13h1.41l0,.13a.31.31,0,0,0-.21.06.62.62,0,0,0-.2.45l-.24,2.22c0,.12,0,.34.09.44a.29.29,0,0,0,.21.06v.14h-1.41v-.14a.3.3,0,0,0,.22-.06.56.56,0,0,0,.2-.44l.12-1.13H389.6l-.12,1.13c0,.12-.05.34.09.44a.29.29,0,0,0,.21.06l0,.14h-1.4v-.14a.32.32,0,0,0,.22-.06.55.55,0,0,0,.19-.44l.24-2.22c0-.13.05-.34-.09-.45a.27.27,0,0,0-.2-.06v-.13h1.41l0,.13a.33.33,0,0,0-.22.06.57.57,0,0,0-.19.45l-.1.85h1.47Z" transform="translate(-360.2 -289.62)"/><path class="cls-1" d="M391.87,309.64a.4.4,0,0,0,.22-.05.58.58,0,0,0,.19-.45l.24-2.22c0-.13.05-.34-.09-.45a.29.29,0,0,0-.21-.06l0-.13h2.29l0,.79-.18,0c-.09-.34-.16-.5-.45-.59a2.39,2.39,0,0,0-.62,0l-.15,1.4c.25,0,.51,0,.67-.24a1.09,1.09,0,0,0,.1-.25h.19l-.13,1.21h-.19a.66.66,0,0,0-.05-.25c-.1-.26-.36-.24-.61-.24l-.09.82c0,.13-.06.5.05.58a1.3,1.3,0,0,0,.78,0,.91.91,0,0,0,.5-.66l.18,0-.16.93h-2.5Z" transform="translate(-360.2 -289.62)"/><path class="cls-1" d="M398.62,307.26h-.2c0-.23-.05-.58-.34-.71a1.12,1.12,0,0,0-.41,0l-.29,2.63c0,.12,0,.34.1.45a.3.3,0,0,0,.2.05v.14h-1.41l0-.14a.42.42,0,0,0,.22-.05.66.66,0,0,0,.19-.45l.29-2.63a1.24,1.24,0,0,0-.43,0,1,1,0,0,0-.49.71h-.2l.16-1h2.65Z" transform="translate(-360.2 -289.62)"/><path class="cls-1" d="M399.27,309.67a1.94,1.94,0,0,1-1.39.12L398,309h.3c0,.18,0,.41.2.51a.2.2,0,0,0,.2,0c.16-.09.17-.31.19-.45l.24-2.18c0-.13,0-.34-.12-.45a.33.33,0,0,0-.23-.06v-.13h1.6l0,.13a.38.38,0,0,0-.24.06.57.57,0,0,0-.22.45l-.2,1.91a1,1,0,0,1-.4.84" transform="translate(-360.2 -289.62)"/><path class="cls-1" d="M401.54,306.41a.26.26,0,0,0-.27.15c0,.11.05.3.16.52l.27.51.32-.37c.22-.26.39-.47.36-.65s-.09-.16-.24-.16l0-.13h1.15l0,.13c-.25,0-.39.2-.65.5l-.79.93.64,1.26c.2.41.29.52.55.54v.14h-1.57v-.14a.27.27,0,0,0,.29-.13c0-.07-.08-.28-.19-.48l-.3-.6-.4.52c-.15.18-.35.42-.3.56a.21.21,0,0,0,.22.13v.14h-1.2l0-.14c.31,0,.49-.2.85-.63l.69-.83-.66-1.29c-.17-.34-.21-.48-.47-.48v-.13h1.54Z" transform="translate(-360.2 -289.62)"/><path class="cls-1" d="M406.89,307.29h-.18c0-.39-.09-.69-.48-.86a.92.92,0,0,0-1,.15,2.1,2.1,0,0,0-.65,1.55,1.65,1.65,0,0,0,.58,1.4.8.8,0,0,0,.91-.1,3.12,3.12,0,0,0,.68-.68l-.05.69a2.25,2.25,0,0,1-2.25.2,1.43,1.43,0,0,1-.68-1.38,2.2,2.2,0,0,1,.77-1.65,2.63,2.63,0,0,1,2.41-.21Z" transform="translate(-360.2 -289.62)"/><path class="cls-1" d="M407.94,307.37a2.43,2.43,0,0,0,.18,2,.69.69,0,0,0,.72.29,1.06,1.06,0,0,0,.71-.74,2.63,2.63,0,0,0-.06-2.16.67.67,0,0,0-.67-.36l-.21.06a1.32,1.32,0,0,0-.67.9m2.44,1.38a1.78,1.78,0,0,1-1.24,1.05,1.61,1.61,0,0,1-2.08-2,2.18,2.18,0,0,1,1.09-1.37,1.64,1.64,0,0,1,2.18.5,2.1,2.1,0,0,1,.05,1.83" transform="translate(-360.2 -289.62)"/><path class="cls-1" d="M412.49,308.79l1.24-2.51h1v.13a.3.3,0,0,0-.19,0,.57.57,0,0,0-.19.48l-.21,2.2c0,.34,0,.48.29.5v.14H413v-.14a.42.42,0,0,0,.24-.05c.15-.11.15-.28.17-.46l.2-2.14-1.38,2.81H412l-.72-2.69-.23,1.92c-.05.39-.07.58.37.61l0,.14h-1.1v-.14a.33.33,0,0,0,.23-.07.61.61,0,0,0,.19-.47l.3-2.17c0-.32.08-.49-.27-.52l0-.13h1Z" transform="translate(-360.2 -289.62)"/><path class="cls-1" d="M416.35,307.62a1.35,1.35,0,0,0,0-.95.46.46,0,0,0-.52-.18l-.16,1.46a.85.85,0,0,0,.27,0c.18,0,.32-.16.41-.37m.78-.91a1.28,1.28,0,0,1-.1,1,1.31,1.31,0,0,1-1.22.48h-.16l-.11,1c0,.12,0,.34.1.44a.27.27,0,0,0,.2.06v.14h-1.41l0-.14a.32.32,0,0,0,.22-.06.55.55,0,0,0,.19-.44l.25-2.22c0-.13,0-.34-.1-.46a.33.33,0,0,0-.21,0l0-.13h1.3c.3,0,.83,0,1,.43" transform="translate(-360.2 -289.62)"/><path class="cls-1" d="M418.17,308.38l-.26-1.11-.47,1.11Zm.17-2.1.78,2.82c.1.38.17.48.4.53l0,.15h-1.42l0-.14a.3.3,0,0,0,.27-.11c.06-.1,0-.29-.06-.55l-.09-.36h-.89c-.12.3-.34.78-.27.9a.31.31,0,0,0,.28.14l0,.12h-1.11v-.11c.29-.05.38-.18.59-.62l1.32-2.77Z" transform="translate(-360.2 -289.62)"/><path class="cls-1" d="M422,306.41l0-.13h1v.13c-.37,0-.42.19-.47.61l-.3,2.78h-.31l-1.84-2.72-.21,1.95c-.05.42,0,.58.32.61v.14h-1.05v-.14c.37,0,.42-.19.47-.61l.21-2c0-.2.06-.44-.13-.57a.44.44,0,0,0-.23-.06l0-.13h1l1.62,2.39.18-1.65c0-.42,0-.58-.33-.61" transform="translate(-360.2 -289.62)"/><path class="cls-1" d="M423.16,306.47a.28.28,0,0,0-.21-.06l0-.13h1.41l0,.13a.32.32,0,0,0-.22.06.57.57,0,0,0-.19.45l-.25,2.22c0,.12,0,.34.1.44a.28.28,0,0,0,.21.06l0,.14h-1.41l0-.14a.33.33,0,0,0,.22-.06.55.55,0,0,0,.19-.44l.25-2.22c0-.13,0-.34-.1-.45" transform="translate(-360.2 -289.62)"/><path class="cls-1" d="M424,309.64a.32.32,0,0,0,.22-.06c.16-.1.18-.32.2-.44l.24-2.22c0-.13,0-.34-.1-.45a.27.27,0,0,0-.2-.06v-.13h2.29l0,.79-.18,0c-.08-.34-.15-.5-.45-.59a2.35,2.35,0,0,0-.61,0l-.15,1.4c.24,0,.5,0,.66-.24a.6.6,0,0,0,.1-.25h.19l-.13,1.21h-.19a.66.66,0,0,0,0-.25c-.1-.26-.36-.24-.61-.24l-.09.82c0,.13,0,.5.05.58a1.34,1.34,0,0,0,.79,0,.94.94,0,0,0,.5-.66l.17,0-.16.93H424Z" transform="translate(-360.2 -289.62)"/><path class="cls-1" d="M429,307.21l-.2,0c0-.2-.05-.62-.32-.76a.62.62,0,0,0-.56,0,.67.67,0,0,0-.26.51c0,.28.21.39.45.53l.24.13c.45.26.69.43.66,1a1.31,1.31,0,0,1-.56,1,2.46,2.46,0,0,1-1.71,0l.09-.9h.2c0,.33.07.65.42.79a.59.59,0,0,0,.61-.05.74.74,0,0,0,.25-.53c0-.35-.31-.51-.53-.62l-.23-.14c-.33-.17-.58-.33-.6-.79a1.24,1.24,0,0,1,.33-.89,1.65,1.65,0,0,1,1.55-.32l.27.06Z" transform="translate(-360.2 -289.62)"/><polygon class="cls-1" points="68.95 19.5 69.53 19.5 68.99 20.76 68.48 20.76 68.95 19.5"/><path class="cls-1" d="M431.38,306.47a.29.29,0,0,0-.21-.06v-.13h1.41v.13a.32.32,0,0,0-.22.06.55.55,0,0,0-.2.45l-.24,2.22c0,.12,0,.34.09.44a.29.29,0,0,0,.21.06v.14H430.8v-.14a.32.32,0,0,0,.22-.06.53.53,0,0,0,.2-.44l.24-2.22a.49.49,0,0,0-.09-.45" transform="translate(-360.2 -289.62)"/><path class="cls-1" d="M435.17,306.41v-.13h1.05v.13c-.37,0-.42.19-.47.61l-.3,2.78h-.31l-1.84-2.72-.22,1.95c0,.42,0,.58.33.61l0,.14h-1v-.14c.37,0,.42-.19.47-.61l.21-2c0-.2.06-.44-.13-.57a.44.44,0,0,0-.23-.06l0-.13h1l1.61,2.39.19-1.65c0-.42,0-.58-.33-.61" transform="translate(-360.2 -289.62)"/><path class="cls-1" d="M439,307.29h-.19c0-.39-.08-.69-.47-.86a.94.94,0,0,0-1,.15,2.14,2.14,0,0,0-.65,1.55,1.71,1.71,0,0,0,.58,1.4.82.82,0,0,0,.92-.1,3.36,3.36,0,0,0,.68-.68l-.05.69a2.27,2.27,0,0,1-2.26.2,1.4,1.4,0,0,1-.67-1.38,2.16,2.16,0,0,1,.77-1.65,2.63,2.63,0,0,1,2.41-.21Z" transform="translate(-360.2 -289.62)"/><path class="cls-1" d="M439.05,309.34a.35.35,0,0,1,.28-.23.44.44,0,0,1,.36.11.45.45,0,0,1,.11.36.34.34,0,0,1-.24.29.36.36,0,0,1-.38-.07.41.41,0,0,1-.13-.46" transform="translate(-360.2 -289.62)"/></svg>